<svg width="23" height="31" viewBox="0 0 23 31" fill="none" xmlns="http://www.w3.org/2000/svg">
<path fill-rule="evenodd" clip-rule="evenodd" d="M0 2.4606C0 0.77159 1.28586 -0.297204 2.87225 0.0734252L20.1277 4.10481C21.714 4.47542 23 5.68132 23 6.8012V23.8232C23 24.9418 21.7141 26.149 20.1277 26.5196L2.87225 30.5509C1.28595 30.9216 0 29.8548 0 28.1638V2.4606ZM4.8875 8.70523C4.8875 7.34146 6.00767 6.39698 7.38674 6.59524L14.8869 7.67353C16.2672 7.87198 17.3861 8.91187 17.3861 9.9968C17.3861 11.0814 16.266 11.8902 14.8869 11.8034L7.38674 11.3317C6.00645 11.2449 4.8875 10.0693 4.8875 8.70523ZM4.75449 15.3122C4.75449 13.9006 5.91399 12.8031 7.34146 12.8608L15.1049 13.1747C16.5337 13.2325 17.692 14.1892 17.692 15.3122C17.692 16.4349 16.5325 17.3919 15.1049 17.4497L7.34146 17.7636C5.91272 17.8214 4.75449 16.7242 4.75449 15.3122ZM7.76249 24.529C9.35034 24.2864 10.6375 22.934 10.6375 21.5082C10.6375 20.0824 9.35034 19.0075 7.76249 19.1074C6.17468 19.2072 4.8875 20.5597 4.8875 22.1282C4.8875 23.6967 6.17468 24.7715 7.76249 24.529Z" fill="url(#paint0_linear_1_418)"/>
<defs>
<linearGradient id="paint0_linear_1_418" x1="-20.3145" y1="-16.9528" x2="-21.0494" y2="68.8705" gradientUnits="userSpaceOnUse">
<stop stop-color="#1400FF"/>
<stop offset="1" stop-color="#FC199B"/>
</linearGradient>
</defs>
</svg>
