<svg width="26" height="26" viewBox="0 0 26 26" fill="none" xmlns="http://www.w3.org/2000/svg">
<path d="M12.9994 0.0429688C5.84183 0.0429688 0.0391846 5.84546 0.0391846 13.003C0.0391846 20.1609 5.84183 25.963 12.9994 25.963C20.1578 25.963 25.9598 20.1609 25.9598 13.003C25.9598 5.84592 20.1578 0.0435878 12.9993 0.0435878L12.9994 0.0429688ZM18.9429 18.7351C18.7107 19.1158 18.2124 19.2365 17.8317 19.0029C14.7888 17.1442 10.9581 16.7232 6.44679 17.7539C6.01207 17.853 5.57873 17.5806 5.47969 17.1457C5.38017 16.7108 5.65147 16.2775 6.08728 16.1784C11.0242 15.0501 15.2589 15.5362 18.6752 17.6239C19.0559 17.8576 19.1766 18.3544 18.9429 18.7351ZM20.5292 15.2058C20.2367 15.6817 19.6146 15.8318 19.1394 15.5393C15.6557 13.3975 10.3454 12.7774 6.22486 14.0282C5.69047 14.1896 5.12605 13.8884 4.96386 13.355C4.80291 12.8206 5.10423 12.2572 5.6377 12.0947C10.3445 10.6666 16.1959 11.3584 20.1965 13.8168C20.6716 14.1093 20.8217 14.7314 20.5292 15.2059V15.2058ZM20.6654 11.5311C16.4884 9.05011 9.59682 8.82199 5.60876 10.0324C4.96835 10.2266 4.29111 9.86509 4.09704 9.22468C3.90297 8.58397 4.26419 7.9072 4.90505 7.7125C9.48307 6.32274 17.0935 6.59125 21.9026 9.44615C22.4798 9.78802 22.6686 10.532 22.3266 11.1072C21.9861 11.6832 21.2402 11.8731 20.666 11.5311H20.6654Z" fill="#23D05F"/>
</svg>
