<svg width="27" height="28" viewBox="0 0 27 28" fill="none" xmlns="http://www.w3.org/2000/svg">
<path d="M10.8976 0.179991C8.37992 0.679555 6.06943 1.87416 4.20829 3.64164C2.99196 4.7996 2.23808 5.79873 1.52041 7.18837C0.413588 9.33369 0 11.0641 0 13.5139C0 15.9638 0.413588 17.6946 1.52041 19.8395C2.23808 21.2291 2.99196 22.2282 4.20829 23.3862C6.75 25.8116 9.86368 27.0429 13.4394 27.0429C15.8232 27.0429 17.611 26.6284 19.5812 25.641C20.5663 25.1415 21.8921 24.288 21.8921 24.1419C21.8921 24.093 21.15 23.3129 20.2505 22.4111L18.6083 20.7657L17.8784 21.168C16.5164 21.9237 15.5313 22.192 13.9136 22.2527C12.6855 22.3015 12.2841 22.2771 11.4203 22.0576C7.44324 21.0581 4.74314 17.6091 4.74314 13.5139C4.74314 8.61421 8.61069 4.73851 13.5 4.73851C19.9337 4.73851 24.1298 11.3446 21.4663 17.2679L21.1256 18.0358L22.7555 19.6811C23.6433 20.5829 24.4338 21.3142 24.5067 21.3142C24.7741 21.3142 25.8687 19.2666 26.3434 17.8647C26.8054 16.5118 27 15.1954 27 13.5135C27 11.0636 26.5864 9.33279 25.4796 7.18792C24.7619 5.79828 24.008 4.79915 22.7917 3.64119C20.9066 1.83751 18.5961 0.65512 16.0173 0.167774C14.8258 -0.0639083 12.0529 -0.0516912 10.8976 0.179991Z" fill="#2CCEBA"/>
<path d="M13.522 19.0499C16.547 19.0499 18.9992 16.5977 18.9992 13.5728C18.9992 10.5479 16.547 8.0957 13.522 8.0957C10.4971 8.0957 8.04492 10.5479 8.04492 13.5728C8.04492 16.5977 10.4971 19.0499 13.522 19.0499Z" fill="#2CCEBA"/>
</svg>
