<svg width="69" height="68" viewBox="0 0 69 68" fill="none" xmlns="http://www.w3.org/2000/svg">
<g filter="url(#filter0_i_1_1056)">
<rect x="0.396118" y="9.15527e-05" width="67.7217" height="67.7217" rx="9.67452" fill="#F8F8F8" fill-opacity="0.01"/>
<rect x="0.396118" y="9.15527e-05" width="67.7217" height="67.7217" rx="9.67452" fill="#121212" fill-opacity="0.3"/>
<rect x="1.00078" y="0.604749" width="66.5123" height="66.5123" rx="9.06986" stroke="url(#paint0_linear_1_1056)" stroke-opacity="0.25" stroke-width="1.20932"/>
<path d="M28.481 14.7133C23.1071 14.8358 19.9682 15.3473 17.8236 17.4845C15.9466 19.355 15.3191 21.9845 15.1094 26.2018M40.0327 14.7133C45.4067 14.8358 48.5455 15.3473 50.6902 17.4845C52.5672 19.355 53.1946 21.9845 53.4044 26.2018M40.0327 53.0083C45.4067 52.8859 48.5455 52.3743 50.6902 50.2371C52.5672 48.3666 53.1946 45.7372 53.4044 41.5198M28.481 53.0083C23.1071 52.8859 19.9682 52.3743 17.8236 50.2371C15.9466 48.3666 15.3191 45.7372 15.1094 41.5198" stroke="#E9E9E9" stroke-width="2.87212" stroke-linecap="round" stroke-linejoin="round"/>
<path d="M25.6405 43.4346C30.1051 38.7584 38.3606 38.5382 42.8732 43.4346M39.0344 29.0739C39.0344 31.7177 36.8881 33.8608 34.2407 33.8608C31.5932 33.8608 29.447 31.7177 29.447 29.0739C29.447 26.4302 31.5932 24.2871 34.2407 24.2871C36.8881 24.2871 39.0344 26.4302 39.0344 29.0739Z" stroke="#E9E9E9" stroke-width="2.87212" stroke-linecap="round"/>
</g>
<defs>
<filter id="filter0_i_1_1056" x="0.396118" y="9.15527e-05" width="67.7217" height="67.7216" filterUnits="userSpaceOnUse" color-interpolation-filters="sRGB">
<feFlood flood-opacity="0" result="BackgroundImageFix"/>
<feBlend mode="normal" in="SourceGraphic" in2="BackgroundImageFix" result="shape"/>
<feColorMatrix in="SourceAlpha" type="matrix" values="0 0 0 0 0 0 0 0 0 0 0 0 0 0 0 0 0 0 127 0" result="hardAlpha"/>
<feOffset/>
<feGaussianBlur stdDeviation="8.21327"/>
<feComposite in2="hardAlpha" operator="arithmetic" k2="-1" k3="1"/>
<feColorMatrix type="matrix" values="0 0 0 0 0 0 0 0 0 1 0 0 0 0 0.872727 0 0 0 1 0"/>
<feBlend mode="normal" in2="shape" result="effect1_innerShadow_1_1056"/>
</filter>
<linearGradient id="paint0_linear_1_1056" x1="34.257" y1="9.07842e-05" x2="63.7172" y2="74.3667" gradientUnits="userSpaceOnUse">
<stop stop-color="white" stop-opacity="0.4"/>
<stop offset="0.4" stop-color="white" stop-opacity="0.01"/>
<stop offset="0.6" stop-color="white" stop-opacity="0.01"/>
<stop offset="1" stop-color="white" stop-opacity="0.1"/>
</linearGradient>
</defs>
</svg>
