<svg width="54" height="54" viewBox="0 0 54 54" fill="none" xmlns="http://www.w3.org/2000/svg">
<path fill-rule="evenodd" clip-rule="evenodd" d="M19.5 8.25C19.9074 8.25008 20.3037 8.38286 20.6289 8.62825C20.9541 8.87363 21.1906 9.21826 21.3025 9.61L23.335 16.725C23.7726 18.2573 24.5936 19.6527 25.7204 20.7796C26.8473 21.9064 28.2427 22.7274 29.775 23.165L36.89 25.1975C37.2815 25.3096 37.6258 25.5462 37.8709 25.8714C38.1161 26.1966 38.2487 26.5928 38.2487 27C38.2487 27.4072 38.1161 27.8034 37.8709 28.1286C37.6258 28.4538 37.2815 28.6904 36.89 28.8025L29.775 30.835C28.2427 31.2726 26.8473 32.0936 25.7204 33.2204C24.5936 34.3473 23.7726 35.7427 23.335 37.275L21.3025 44.39C21.1904 44.7815 20.9538 45.1258 20.6286 45.3709C20.3034 45.6161 19.9072 45.7486 19.5 45.7486C19.0928 45.7486 18.6966 45.6161 18.3714 45.3709C18.0462 45.1258 17.8096 44.7815 17.6975 44.39L15.665 37.275C15.2274 35.7427 14.4064 34.3473 13.2796 33.2204C12.1527 32.0936 10.7573 31.2726 9.225 30.835L2.11 28.8025C1.71851 28.6904 1.37418 28.4538 1.12906 28.1286C0.883934 27.8034 0.75135 27.4072 0.75135 27C0.75135 26.5928 0.883934 26.1966 1.12906 25.8714C1.37418 25.5462 1.71851 25.3096 2.11 25.1975L9.225 23.165C10.7573 22.7274 12.1527 21.9064 13.2796 20.7796C14.4064 19.6527 15.2274 18.2573 15.665 16.725L17.6975 9.61C17.8094 9.21826 18.0459 8.87363 18.3711 8.62825C18.6963 8.38286 19.0926 8.25008 19.5 8.25ZM42 0.75C42.4183 0.749767 42.8246 0.88941 43.1544 1.14672C43.4842 1.40402 43.7185 1.76421 43.82 2.17L44.465 4.76C45.055 7.11 46.89 8.945 49.24 9.535L51.83 10.18C52.2366 10.2807 52.5977 10.5146 52.8558 10.8445C53.114 11.1744 53.2542 11.5811 53.2542 12C53.2542 12.4189 53.114 12.8256 52.8558 13.1555C52.5977 13.4854 52.2366 13.7193 51.83 13.82L49.24 14.465C46.89 15.055 45.055 16.89 44.465 19.24L43.82 21.83C43.7193 22.2366 43.4854 22.5977 43.1555 22.8558C42.8256 23.114 42.4189 23.2542 42 23.2542C41.5812 23.2542 41.1744 23.114 40.8445 22.8558C40.5146 22.5977 40.2807 22.2366 40.18 21.83L39.535 19.24C39.2465 18.0861 38.6499 17.0322 37.8088 16.1912C36.9678 15.3501 35.9139 14.7535 34.76 14.465L32.17 13.82C31.7634 13.7193 31.4023 13.4854 31.1442 13.1555C30.886 12.8256 30.7458 12.4189 30.7458 12C30.7458 11.5811 30.886 11.1744 31.1442 10.8445C31.4023 10.5146 31.7634 10.2807 32.17 10.18L34.76 9.535C35.9139 9.24653 36.9678 8.64987 37.8088 7.80881C38.6499 6.96775 39.2465 5.91393 39.535 4.76L40.18 2.17C40.2815 1.76421 40.5158 1.40402 40.8456 1.14672C41.1754 0.88941 41.5817 0.749767 42 0.75ZM38.25 34.5C38.6438 34.4998 39.0277 34.6235 39.3472 34.8537C39.6667 35.0839 39.9056 35.4089 40.03 35.7825L41.015 38.74C41.39 39.8575 42.265 40.7375 43.385 41.11L46.3425 42.0975C46.7149 42.2225 47.0387 42.4614 47.268 42.7803C47.4974 43.0992 47.6207 43.4822 47.6207 43.875C47.6207 44.2678 47.4974 44.6508 47.268 44.9697C47.0387 45.2886 46.7149 45.5275 46.3425 45.6525L43.385 46.64C42.2675 47.015 41.3875 47.89 41.015 49.01L40.0275 51.9675C39.9025 52.3399 39.6636 52.6636 39.3447 52.893C39.0258 53.1224 38.6428 53.2457 38.25 53.2457C37.8572 53.2457 37.4742 53.1224 37.1553 52.893C36.8364 52.6636 36.5975 52.3399 36.4725 51.9675L35.485 49.01C35.3008 48.4582 34.9908 47.9568 34.5795 47.5455C34.1682 47.1341 33.6668 46.8242 33.115 46.64L30.1575 45.6525C29.7851 45.5275 29.4614 45.2886 29.232 44.9697C29.0026 44.6508 28.8793 44.2678 28.8793 43.875C28.8793 43.4822 29.0026 43.0992 29.232 42.7803C29.4614 42.4614 29.7851 42.2225 30.1575 42.0975L33.115 41.11C34.2325 40.735 35.1125 39.86 35.485 38.74L36.4725 35.7825C36.5968 35.4093 36.8353 35.0846 37.1543 34.8545C37.4733 34.6243 37.8566 34.5003 38.25 34.5Z" fill="#27B4A3"/>
</svg>
