<svg width="18" height="18" viewBox="0 0 18 18" fill="none" xmlns="http://www.w3.org/2000/svg">
<path fill-rule="evenodd" clip-rule="evenodd" d="M0.873976 17.315C1.11304 17.5537 1.4371 17.6878 1.77498 17.6878C2.11285 17.6878 2.43691 17.5537 2.67598 17.315L14.95 5.04097V14.714C14.95 15.0521 15.0843 15.3764 15.3234 15.6155C15.5625 15.8546 15.8868 15.989 16.225 15.989C16.5631 15.989 16.8874 15.8546 17.1265 15.6155C17.3656 15.3764 17.5 15.0521 17.5 14.714V1.96396C17.5 1.62581 17.3656 1.30151 17.1265 1.0624C16.8874 0.823295 16.5631 0.688965 16.225 0.688965H3.47498C3.13683 0.688965 2.81252 0.823295 2.57342 1.0624C2.33431 1.30151 2.19998 1.62581 2.19998 1.96396C2.19998 2.30212 2.33431 2.62642 2.57342 2.86553C2.81252 3.10464 3.13683 3.23897 3.47498 3.23897H13.148L0.873976 15.513C0.635211 15.752 0.501099 16.0761 0.501099 16.414C0.501099 16.7518 0.635211 17.0759 0.873976 17.315Z" fill="#0C0C0C"/>
</svg>
