<svg width="164" height="22" viewBox="0 0 164 22" fill="none" xmlns="http://www.w3.org/2000/svg">
<g clip-path="url(#clip0_1_464)">
<path d="M79.8124 0.347477C78.1063 0.320432 76.4436 0.865801 75.1103 1.8898C73.7043 3.00842 72.7294 4.54832 72.3418 6.26287C72.0486 2.31928 70.071 0.347477 66.409 0.347477C64.7621 0.310827 63.1561 0.843112 61.8826 1.84772C60.5751 2.92374 59.6785 4.38835 59.3344 6.00965V5.71371C59.3492 4.55286 59.1699 3.39725 58.8036 2.29102C58.6802 1.79591 58.5034 1.31449 58.2762 0.854551H53.8374V21.3466H59.422V10.2749C59.4512 8.41578 59.8906 6.97913 60.7402 5.96497C61.1538 5.46704 61.6837 5.06983 62.287 4.80554C62.8901 4.54125 63.5496 4.4173 64.2118 4.44375C65.3249 4.44331 66.1086 4.70396 66.5628 5.22572C67.0171 5.74751 67.2442 6.61373 67.2442 7.82435V21.3466H72.8254V10.2781C72.8547 8.419 73.2867 6.98236 74.1218 5.96819C74.5369 5.46642 75.0702 5.06678 75.6776 4.80226C76.285 4.53775 76.9492 4.41594 77.6153 4.44691C78.7284 4.44647 79.5122 4.70715 79.9665 5.22895C80.4205 5.75068 80.6477 6.61687 80.6477 7.8275V21.3499H86.2289V7.57237C86.2307 5.17786 85.6593 3.37509 84.5147 2.16405C83.3701 0.953002 81.8026 0.347477 79.8124 0.347477Z" fill="#A5A5A5"/>
<path d="M99.5975 0.345705C96.4336 0.343999 93.8629 1.27949 91.8855 3.15217C89.9081 5.02495 88.9194 7.5672 88.9194 10.7789V10.8631C88.9216 14.4687 89.9478 17.194 91.9983 19.0391C94.1039 20.8222 96.8133 21.8061 99.6192 21.8066C102.425 21.8072 105.135 20.8245 107.241 19.0422C109.292 17.1976 110.318 14.4582 110.318 10.8242V10.74C110.319 7.52867 109.324 4.99344 107.332 3.13436C105.34 1.27524 102.762 0.345684 99.5975 0.345705ZM104.654 11.4538C104.654 16.0169 102.969 18.2984 99.6003 18.2984V18.2999C96.2585 18.2999 94.5887 16.0182 94.5909 11.4551V9.93377C94.5913 8.01854 95.038 6.53981 95.931 5.49758C96.3749 4.98167 96.9375 4.57194 97.5743 4.30064C98.2109 4.02935 98.9046 3.90391 99.6003 3.93421C100.299 3.90457 100.996 4.0302 101.636 4.30133C102.276 4.57247 102.843 4.98181 103.292 5.49758C104.2 6.54149 104.654 8.02022 104.654 9.93377V11.4538Z" fill="#A5A5A5"/>
<path d="M126.108 0.343647C124.344 0.288488 122.616 0.834781 121.23 1.88597C119.878 2.96822 118.962 4.46981 118.638 6.13208V5.70988C118.654 4.54913 118.476 3.39338 118.11 2.2872C117.986 1.79196 117.808 1.31054 117.579 0.850721H113.135V21.3429H118.724V10.2743C118.723 8.44323 119.199 7.0136 120.152 5.98541C120.615 5.48077 121.188 5.08079 121.83 4.81415C122.472 4.5475 123.168 4.42079 123.867 4.4431C126.24 4.4431 127.426 5.56997 127.426 7.82369V21.346H132.964V7.56855C132.964 5.17403 132.365 3.37125 131.162 2.16022C129.96 0.949172 128.275 0.343647 126.108 0.343647Z" fill="#A5A5A5"/>
<path d="M154.064 3.13435C152.071 1.27523 149.494 0.345684 146.33 0.345705C143.165 0.343999 140.594 1.27949 138.617 3.15217C136.639 5.02495 135.651 7.5672 135.651 10.7789V10.8631C135.651 14.4687 136.677 17.194 138.727 19.0391C140.835 20.8227 143.544 21.8066 146.352 21.8066C149.159 21.8066 151.87 20.8227 153.976 19.0391C156.027 17.1943 157.053 14.4551 157.053 10.821V10.7369C157.053 7.52758 156.056 4.99342 154.064 3.13435ZM151.384 11.4538C151.383 16.0169 149.698 18.2984 146.33 18.2984V18.2999C142.99 18.2999 141.32 16.0182 141.32 11.4551V9.93377C141.322 8.01854 141.768 6.53981 142.661 5.49758C143.105 4.9816 143.667 4.57182 144.304 4.30052C144.941 4.02922 145.634 3.90382 146.33 3.93421C147.029 3.90472 147.726 4.03041 148.365 4.30153C149.006 4.57265 149.572 4.98191 150.021 5.49758C150.93 6.54149 151.384 8.02022 151.384 9.93377V11.4538Z" fill="#A5A5A5"/>
<path d="M34.7467 0.488592C34.631 0.40757 34.4943 0.358921 34.3517 0.348038C34.209 0.337155 34.0661 0.364462 33.9385 0.426933C33.8111 0.489404 33.7041 0.584597 33.6295 0.701959C33.5548 0.819322 33.5154 0.954268 33.5156 1.09184V9.01794L21.4207 0.488592C21.3051 0.40757 21.1683 0.358921 21.0257 0.348038C20.8831 0.337155 20.7401 0.364462 20.6126 0.426933C20.4852 0.489404 20.3782 0.584597 20.3035 0.701959C20.2289 0.819322 20.1894 0.954268 20.1897 1.09184V9.01794L8.09477 0.488592C7.97914 0.40757 7.84242 0.358921 7.69979 0.348038C7.55715 0.337155 7.41417 0.364463 7.28669 0.426935C7.15921 0.489406 7.05221 0.584601 6.97756 0.701965C6.90291 0.819329 6.86353 0.954276 6.86377 1.09185V12.2912C6.86422 12.4083 6.89332 12.5239 6.94873 12.6282C7.00414 12.7325 7.0843 12.8229 7.18275 12.8921L19.625 21.6664C19.7406 21.7474 19.8773 21.796 20.02 21.8069C20.1625 21.8178 20.3056 21.7904 20.433 21.728C20.5605 21.6655 20.6675 21.5703 20.7421 21.453C20.8169 21.3356 20.8562 21.2007 20.8559 21.0631V13.137L32.9509 21.6664C33.0666 21.7475 33.2032 21.7961 33.3458 21.807C33.4885 21.8179 33.6314 21.7906 33.7589 21.7281C33.8863 21.6656 33.9933 21.5705 34.0679 21.453C34.1425 21.3357 34.1817 21.2007 34.1815 21.0631V13.1366L46.2788 21.6664C46.3944 21.7475 46.531 21.7961 46.6737 21.807C46.8164 21.8179 46.9593 21.7906 47.0867 21.7281C47.2143 21.6656 47.3211 21.5705 47.3957 21.453C47.4703 21.3357 47.5096 21.2007 47.5093 21.0631V9.86521C47.5089 9.74768 47.4796 9.6319 47.4239 9.52725C47.3682 9.42261 47.2877 9.33205 47.1889 9.2629L34.7467 0.488592Z" fill="#A5A5A5"/>
</g>
<defs>
<clipPath id="clip0_1_464">
<rect width="163.998" height="21.6602" fill="white" transform="translate(0.00170898 0.339844)"/>
</clipPath>
</defs>
</svg>
