<svg width="331" height="50" viewBox="0 0 331 50" fill="none" xmlns="http://www.w3.org/2000/svg">
<mask id="path-1-inside-1_2_2756" fill="white">
<path d="M0.444336 24.8333C0.444336 11.1183 11.5626 0 25.2777 0H305.611C319.326 0 330.444 11.1183 330.444 24.8333C330.444 38.5484 319.326 49.6667 305.611 49.6667H25.2777C11.5626 49.6667 0.444336 38.5484 0.444336 24.8333Z"/>
</mask>
<path d="M0.444336 24.8333C0.444336 11.1183 11.5626 0 25.2777 0H305.611C319.326 0 330.444 11.1183 330.444 24.8333C330.444 38.5484 319.326 49.6667 305.611 49.6667H25.2777C11.5626 49.6667 0.444336 38.5484 0.444336 24.8333Z" fill="url(#paint0_radial_2_2756)"/>
<g clip-path="url(#paint1_diamond_2_2756_clip_path)" data-figma-skip-parse="true" mask="url(#path-1-inside-1_2_2756)"><g transform="matrix(0.0087551 -0.000671171 0.000101708 0.00131769 165.444 24.8333)"><rect x="0" y="0" width="19034.5" height="28819.7" fill="url(#paint1_diamond_2_2756)" opacity="1" shape-rendering="crispEdges"/><rect x="0" y="0" width="19034.5" height="28819.7" transform="scale(1 -1)" fill="url(#paint1_diamond_2_2756)" opacity="1" shape-rendering="crispEdges"/><rect x="0" y="0" width="19034.5" height="28819.7" transform="scale(-1 1)" fill="url(#paint1_diamond_2_2756)" opacity="1" shape-rendering="crispEdges"/><rect x="0" y="0" width="19034.5" height="28819.7" transform="scale(-1)" fill="url(#paint1_diamond_2_2756)" opacity="1" shape-rendering="crispEdges"/></g></g><path d="M25.2777 0V0.666667H305.611V0V-0.666667H25.2777V0ZM305.611 49.6667V49H25.2777V49.6667V50.3333H305.611V49.6667ZM25.2777 49.6667V49C11.9308 49 1.111 38.1802 1.111 24.8333H0.444336H-0.222331C-0.222331 38.9166 11.1944 50.3333 25.2777 50.3333V49.6667ZM330.444 24.8333H329.778C329.778 38.1802 318.958 49 305.611 49V49.6667V50.3333C319.694 50.3333 331.111 38.9166 331.111 24.8333H330.444ZM305.611 0V0.666667C318.958 0.666667 329.778 11.4865 329.778 24.8333H330.444H331.111C331.111 10.7501 319.694 -0.666667 305.611 -0.666667V0ZM25.2777 0V-0.666667C11.1944 -0.666667 -0.222331 10.7501 -0.222331 24.8333H0.444336H1.111C1.111 11.4865 11.9308 0.666667 25.2777 0.666667V0Z" data-figma-gradient-fill="{&#34;type&#34;:&#34;GRADIENT_DIAMOND&#34;,&#34;stops&#34;:[{&#34;color&#34;:{&#34;r&#34;:1.0,&#34;g&#34;:1.0,&#34;b&#34;:1.0,&#34;a&#34;:1.0},&#34;position&#34;:0.0},{&#34;color&#34;:{&#34;r&#34;:0.17254902422428131,&#34;g&#34;:0.80784314870834351,&#34;b&#34;:0.7294117808341980,&#34;a&#34;:1.0},&#34;position&#34;:1.0}],&#34;stopsVar&#34;:[{&#34;color&#34;:{&#34;r&#34;:1.0,&#34;g&#34;:1.0,&#34;b&#34;:1.0,&#34;a&#34;:1.0},&#34;position&#34;:0.0},{&#34;color&#34;:{&#34;r&#34;:0.17254902422428131,&#34;g&#34;:0.80784314870834351,&#34;b&#34;:0.7294117808341980,&#34;a&#34;:1.0},&#34;position&#34;:1.0}],&#34;transform&#34;:{&#34;m00&#34;:17.510204315185547,&#34;m01&#34;:0.20341524481773376,&#34;m02&#34;:156.58752441406250,&#34;m10&#34;:-1.3423422574996948,&#34;m11&#34;:2.6353740692138672,&#34;m12&#34;:24.186819076538086},&#34;opacity&#34;:1.0,&#34;blendMode&#34;:&#34;NORMAL&#34;,&#34;visible&#34;:true}" mask="url(#path-1-inside-1_2_2756)"/>
<path fill-rule="evenodd" clip-rule="evenodd" d="M27.1108 16.8334C27.8322 16.8334 28.4716 17.3166 28.6945 18.0304L29.8161 21.6214H33.4455C34.1669 21.6214 34.8063 22.1047 35.0292 22.8185C35.2522 23.5322 35.0079 24.3141 34.4243 24.7553L31.488 26.9747L32.6096 30.5657C32.8325 31.2795 32.5883 32.0614 32.0047 32.5025C31.421 32.9437 30.6308 32.9437 30.0471 32.5025L27.1108 30.2831L24.1745 32.5025C23.5909 32.9437 22.8006 32.9437 22.217 32.5025C21.6334 32.0614 21.3892 31.2795 21.6121 30.5657L22.7337 26.9747L19.7974 24.7553C19.2137 24.3141 18.9695 23.5322 19.1925 22.8185C19.4154 22.1047 20.0547 21.6214 20.7761 21.6214H24.4056L25.5272 18.0304C25.7501 17.3166 26.3894 16.8334 27.1108 16.8334Z" fill="url(#paint2_linear_2_2756)"/>
<path d="M54.9516 21.1514C54.8765 20.3958 54.5428 19.7947 53.9506 19.3484C53.3585 18.9021 52.6138 18.6789 51.7167 18.6789C51.0848 18.6789 50.528 18.7872 50.0463 19.0037C49.569 19.2202 49.1934 19.5208 48.9194 19.9052C48.6498 20.2853 48.515 20.7184 48.515 21.2045C48.515 21.5624 48.5924 21.8762 48.747 22.1458C48.9017 22.4153 49.1094 22.6473 49.3701 22.8418C49.6353 23.0318 49.927 23.1953 50.2451 23.3323C50.5677 23.4693 50.8926 23.5842 51.2196 23.677L52.6514 24.088C53.0845 24.2073 53.5176 24.3598 53.9506 24.5454C54.3837 24.731 54.7792 24.9652 55.1372 25.248C55.4996 25.5264 55.789 25.8689 56.0056 26.2755C56.2265 26.6776 56.337 27.1615 56.337 27.7272C56.337 28.4519 56.1492 29.1038 55.7736 29.6827C55.3979 30.2616 54.8588 30.7212 54.1561 31.0615C53.4535 31.3973 52.6116 31.5653 51.6306 31.5653C50.707 31.5653 49.9049 31.4128 49.2243 31.1079C48.5438 30.7985 48.009 30.3721 47.6201 29.8285C47.2313 29.285 47.0125 28.6552 46.9639 27.9393H48.2366C48.2808 28.474 48.4576 28.927 48.7669 29.2982C49.0763 29.6694 49.4784 29.9523 49.9734 30.1467C50.4683 30.3367 51.0207 30.4317 51.6306 30.4317C52.3067 30.4317 52.9077 30.319 53.4336 30.0937C53.9639 29.8639 54.3793 29.5457 54.6798 29.1391C54.9847 28.7281 55.1372 28.2509 55.1372 27.7073C55.1372 27.2477 55.0179 26.8632 54.7792 26.5539C54.5406 26.2401 54.207 25.9772 53.7783 25.7651C53.354 25.5529 52.8613 25.3651 52.3001 25.2016L50.676 24.7243C49.611 24.4062 48.7846 23.9665 48.1969 23.4052C47.6091 22.844 47.3152 22.1281 47.3152 21.2575C47.3152 20.5283 47.5097 19.8875 47.8986 19.3351C48.2919 18.7783 48.8222 18.3452 49.4895 18.0359C50.1612 17.7221 50.9147 17.5653 51.7499 17.5653C52.5939 17.5653 53.3408 17.7199 53.9904 18.0293C54.64 18.3386 55.1549 18.7651 55.5349 19.3086C55.9194 19.8478 56.1249 20.462 56.1514 21.1514H54.9516ZM59.0747 31.3333V21.1514H60.2215V22.7158H60.3275C60.5308 22.1899 60.8689 21.7767 61.3417 21.4762C61.819 21.1713 62.3913 21.0189 63.0586 21.0189C63.7612 21.0189 64.338 21.1846 64.7887 21.516C65.2439 21.843 65.5842 22.2938 65.8095 22.8683H65.8957C66.1255 22.3026 66.4989 21.8541 67.016 21.5226C67.5374 21.1868 68.1694 21.0189 68.9118 21.0189C69.8575 21.0189 70.6044 21.3172 71.1523 21.9137C71.7003 22.5059 71.9743 23.3721 71.9743 24.5122V31.3333H70.7944V24.5122C70.7944 23.7079 70.5889 23.1047 70.1779 22.7026C69.7669 22.3004 69.2256 22.0993 68.5539 22.0993C67.7761 22.0993 67.1773 22.338 66.7575 22.8153C66.3376 23.2925 66.1277 23.898 66.1277 24.6315V31.3333H64.9213V24.4062C64.9213 23.7168 64.729 23.16 64.3446 22.7357C63.9601 22.3115 63.4188 22.0993 62.7205 22.0993C62.2521 22.0993 61.8301 22.2142 61.4544 22.444C61.0832 22.6738 60.7893 22.9942 60.5728 23.4052C60.3607 23.8118 60.2546 24.2802 60.2546 24.8105V31.3333H59.0747ZM77.9419 31.5653C77.3276 31.5653 76.7664 31.4459 76.2582 31.2073C75.75 30.9642 75.3456 30.6151 75.0451 30.16C74.7446 29.7004 74.5943 29.1435 74.5943 28.4895C74.5943 27.9857 74.6894 27.5615 74.8794 27.2168C75.0694 26.8721 75.339 26.5892 75.6881 26.3683C76.0372 26.1473 76.4504 25.9728 76.9277 25.8446C77.405 25.7165 77.9308 25.617 78.5053 25.5463C79.0754 25.4756 79.5571 25.4137 79.9504 25.3607C80.3481 25.3077 80.6508 25.2237 80.8585 25.1088C81.0663 24.9939 81.1701 24.8083 81.1701 24.552V24.3134C81.1701 23.6196 80.9624 23.0738 80.547 22.6761C80.136 22.2739 79.5438 22.0728 78.7705 22.0728C78.0369 22.0728 77.4381 22.2341 76.9741 22.5567C76.5145 22.8793 76.1919 23.2594 76.0063 23.6969L74.886 23.2925C75.1158 22.7357 75.434 22.2916 75.8406 21.9601C76.2471 21.6243 76.7023 21.3834 77.2061 21.2376C77.7099 21.0874 78.2203 21.0122 78.7373 21.0122C79.1262 21.0122 79.5306 21.063 79.9504 21.1647C80.3746 21.2663 80.768 21.4431 81.1303 21.695C81.4927 21.9425 81.7866 22.2894 82.012 22.7357C82.2373 23.1776 82.35 23.7389 82.35 24.4194V31.3333H81.1701V29.7225H81.0972C80.9558 30.023 80.7459 30.3146 80.4675 30.5975C80.189 30.8803 79.8399 31.1123 79.4201 31.2935C79.0003 31.4747 78.5075 31.5653 77.9419 31.5653ZM78.101 30.4848C78.7285 30.4848 79.2721 30.3456 79.7317 30.0672C80.1913 29.7887 80.5448 29.4197 80.7923 28.9601C81.0442 28.4961 81.1701 27.9857 81.1701 27.4289V25.9573C81.0817 26.0413 80.9337 26.1164 80.726 26.1827C80.5227 26.249 80.2863 26.3086 80.0167 26.3617C79.7515 26.4103 79.4864 26.4523 79.2212 26.4876C78.9561 26.523 78.7175 26.5539 78.5053 26.5804C77.9308 26.6511 77.4403 26.7616 77.0337 26.9119C76.6272 27.0621 76.3156 27.2698 76.0991 27.535C75.8825 27.7957 75.7743 28.1315 75.7743 28.5425C75.7743 29.1612 75.9952 29.6407 76.4371 29.981C76.8791 30.3168 77.4337 30.4848 78.101 30.4848ZM85.4888 31.3333V21.1514H86.6355V22.7158H86.7217C86.925 22.2032 87.2785 21.79 87.7823 21.4762C88.2905 21.1581 88.865 20.999 89.5058 20.999C89.603 20.999 89.7113 21.0012 89.8306 21.0056C89.9499 21.01 90.0494 21.0144 90.1289 21.0189V22.2187C90.0759 22.2098 89.9831 22.1966 89.8505 22.1789C89.7179 22.1612 89.5743 22.1524 89.4196 22.1524C88.8893 22.1524 88.4165 22.2651 88.0011 22.4904C87.5901 22.7114 87.2653 23.0185 87.0266 23.4118C86.788 23.8052 86.6687 24.2537 86.6687 24.7575V31.3333H85.4888ZM96.7908 21.1514V22.1789H91.9319V21.1514H96.7908ZM93.4499 18.712H94.6365V28.6751C94.6365 29.0994 94.7094 29.433 94.8552 29.6761C95.0011 29.9147 95.1911 30.0848 95.4253 30.1865C95.6595 30.2837 95.9092 30.3323 96.1744 30.3323C96.329 30.3323 96.4616 30.3235 96.5721 30.3058C96.6826 30.2837 96.7798 30.2616 96.8638 30.2395L97.1157 31.3067C97.0008 31.3509 96.8593 31.3907 96.6914 31.4261C96.5235 31.4658 96.3158 31.4857 96.0683 31.4857C95.6352 31.4857 95.2176 31.3907 94.8155 31.2007C94.4177 31.0107 94.0907 30.7278 93.8344 30.3522C93.5781 29.9766 93.4499 29.5103 93.4499 28.9535V18.712ZM103.478 31.5454C102.528 31.5454 101.706 31.3244 101.012 30.8825C100.318 30.4362 99.781 29.8197 99.4009 29.0331C99.0253 28.242 98.8375 27.3317 98.8375 26.302C98.8375 25.2767 99.0253 24.3664 99.4009 23.5709C99.781 22.7711 100.305 22.1458 100.972 21.695C101.644 21.2398 102.419 21.0122 103.299 21.0122C103.851 21.0122 104.384 21.1139 104.896 21.3172C105.409 21.516 105.868 21.8231 106.275 22.2386C106.686 22.6495 107.011 23.1688 107.249 23.7963C107.488 24.4194 107.607 25.1574 107.607 26.0103V26.5937H99.6528V25.5529H106.401C106.401 24.8989 106.268 24.3112 106.003 23.7897C105.742 23.2638 105.378 22.8484 104.909 22.5435C104.445 22.2386 103.909 22.0861 103.299 22.0861C102.653 22.0861 102.086 22.2584 101.595 22.6031C101.105 22.9478 100.72 23.403 100.442 23.9687C100.168 24.5343 100.028 25.153 100.024 25.8247V26.4478C100.024 27.2565 100.163 27.9636 100.442 28.569C100.724 29.1701 101.124 29.6363 101.641 29.9677C102.159 30.2992 102.771 30.4649 103.478 30.4649C103.959 30.4649 104.381 30.3898 104.744 30.2395C105.111 30.0892 105.418 29.8882 105.665 29.6363C105.917 29.38 106.107 29.0994 106.235 28.7944L107.355 29.159C107.201 29.5877 106.947 29.9832 106.593 30.3456C106.244 30.7079 105.807 30.9996 105.281 31.2206C104.759 31.4371 104.158 31.5454 103.478 31.5454ZM110.208 31.3333V21.1514H111.354V22.7158H111.44C111.644 22.2032 111.997 21.79 112.501 21.4762C113.009 21.1581 113.584 20.999 114.225 20.999C114.322 20.999 114.43 21.0012 114.549 21.0056C114.669 21.01 114.768 21.0144 114.848 21.0189V22.2187C114.795 22.2098 114.702 22.1966 114.569 22.1789C114.437 22.1612 114.293 22.1524 114.138 22.1524C113.608 22.1524 113.135 22.2651 112.72 22.4904C112.309 22.7114 111.984 23.0185 111.745 23.4118C111.507 23.8052 111.387 24.2537 111.387 24.7575V31.3333H110.208ZM123.596 17.7575V31.3333H122.356V17.7575H123.596ZM130.626 31.5454C129.791 31.5454 129.059 31.3244 128.432 30.8825C127.804 30.4406 127.314 29.8241 126.96 29.0331C126.611 28.242 126.436 27.3206 126.436 26.2689C126.436 25.2215 126.611 24.3045 126.96 23.5179C127.314 22.7269 127.806 22.1126 128.438 21.6751C129.07 21.2332 129.806 21.0122 130.646 21.0122C131.264 21.0122 131.779 21.1227 132.19 21.3437C132.601 21.5602 132.93 21.8298 133.178 22.1524C133.425 22.475 133.618 22.7887 133.755 23.0937H133.861V17.7575H135.047V31.3333H133.894V29.444H133.755C133.618 29.7534 133.423 30.0716 133.171 30.3986C132.919 30.7212 132.586 30.993 132.17 31.2139C131.759 31.4349 131.245 31.5454 130.626 31.5454ZM130.765 30.4649C131.424 30.4649 131.985 30.2859 132.449 29.9279C132.913 29.5656 133.266 29.0684 133.509 28.4365C133.757 27.8001 133.881 27.0709 133.881 26.249C133.881 25.4358 133.759 24.7177 133.516 24.0946C133.273 23.4671 132.919 22.9766 132.455 22.623C131.991 22.2651 131.428 22.0861 130.765 22.0861C130.084 22.0861 129.51 22.2717 129.042 22.6429C128.578 23.0097 128.224 23.5069 127.981 24.1344C127.742 24.7619 127.623 25.4668 127.623 26.249C127.623 27.04 127.745 27.7537 127.988 28.3901C128.231 29.0264 128.584 29.5324 129.048 29.9081C129.517 30.2793 130.089 30.4649 130.765 30.4649ZM142.525 31.5454C141.574 31.5454 140.752 31.3244 140.059 30.8825C139.365 30.4362 138.828 29.8197 138.448 29.0331C138.072 28.242 137.884 27.3317 137.884 26.302C137.884 25.2767 138.072 24.3664 138.448 23.5709C138.828 22.7711 139.352 22.1458 140.019 21.695C140.691 21.2398 141.466 21.0122 142.346 21.0122C142.898 21.0122 143.43 21.1139 143.943 21.3172C144.456 21.516 144.915 21.8231 145.322 22.2386C145.733 22.6495 146.058 23.1688 146.296 23.7963C146.535 24.4194 146.654 25.1574 146.654 26.0103V26.5937H138.7V25.5529H145.448C145.448 24.8989 145.315 24.3112 145.05 23.7897C144.789 23.2638 144.425 22.8484 143.956 22.5435C143.492 22.2386 142.955 22.0861 142.346 22.0861C141.7 22.0861 141.132 22.2584 140.642 22.6031C140.151 22.9478 139.767 23.403 139.489 23.9687C139.215 24.5343 139.075 25.153 139.071 25.8247V26.4478C139.071 27.2565 139.21 27.9636 139.489 28.569C139.771 29.1701 140.171 29.6363 140.688 29.9677C141.205 30.2992 141.817 30.4649 142.525 30.4649C143.006 30.4649 143.428 30.3898 143.791 30.2395C144.157 30.0892 144.465 29.8882 144.712 29.6363C144.964 29.38 145.154 29.0994 145.282 28.7944L146.402 29.159C146.248 29.5877 145.994 29.9832 145.64 30.3456C145.291 30.7079 144.853 30.9996 144.328 31.2206C143.806 31.4371 143.205 31.5454 142.525 31.5454ZM152.098 31.5653C151.484 31.5653 150.923 31.4459 150.414 31.2073C149.906 30.9642 149.502 30.6151 149.201 30.16C148.901 29.7004 148.751 29.1435 148.751 28.4895C148.751 27.9857 148.846 27.5615 149.036 27.2168C149.226 26.8721 149.495 26.5892 149.844 26.3683C150.193 26.1473 150.607 25.9728 151.084 25.8446C151.561 25.7165 152.087 25.617 152.662 25.5463C153.232 25.4756 153.713 25.4137 154.107 25.3607C154.504 25.3077 154.807 25.2237 155.015 25.1088C155.223 24.9939 155.326 24.8083 155.326 24.552V24.3134C155.326 23.6196 155.119 23.0738 154.703 22.6761C154.292 22.2739 153.7 22.0728 152.927 22.0728C152.193 22.0728 151.594 22.2341 151.13 22.5567C150.671 22.8793 150.348 23.2594 150.163 23.6969L149.042 23.2925C149.272 22.7357 149.59 22.2916 149.997 21.9601C150.403 21.6243 150.859 21.3834 151.362 21.2376C151.866 21.0874 152.377 21.0122 152.894 21.0122C153.282 21.0122 153.687 21.063 154.107 21.1647C154.531 21.2663 154.924 21.4431 155.287 21.695C155.649 21.9425 155.943 22.2894 156.168 22.7357C156.394 23.1776 156.506 23.7389 156.506 24.4194V31.3333H155.326V29.7225H155.253C155.112 30.023 154.902 30.3146 154.624 30.5975C154.345 30.8803 153.996 31.1123 153.576 31.2935C153.157 31.4747 152.664 31.5653 152.098 31.5653ZM152.257 30.4848C152.885 30.4848 153.428 30.3456 153.888 30.0672C154.348 29.7887 154.701 29.4197 154.949 28.9601C155.2 28.4961 155.326 27.9857 155.326 27.4289V25.9573C155.238 26.0413 155.09 26.1164 154.882 26.1827C154.679 26.249 154.443 26.3086 154.173 26.3617C153.908 26.4103 153.643 26.4523 153.377 26.4876C153.112 26.523 152.874 26.5539 152.662 26.5804C152.087 26.6511 151.597 26.7616 151.19 26.9119C150.783 27.0621 150.472 27.2698 150.255 27.535C150.039 27.7957 149.931 28.1315 149.931 28.5425C149.931 29.1612 150.151 29.6407 150.593 29.981C151.035 30.3168 151.59 30.4848 152.257 30.4848ZM161.607 29.4772L161.488 30.1865C161.413 30.6637 161.307 31.1896 161.17 31.7641C161.033 32.3386 160.891 32.8844 160.745 33.4014C160.6 33.9185 160.474 34.3339 160.368 34.6476H159.459C159.517 34.3471 159.59 33.9649 159.678 33.5009C159.771 33.0369 159.866 32.522 159.963 31.9564C160.06 31.3951 160.149 30.8162 160.228 30.2196L160.321 29.4772H161.607ZM169.994 31.3333V21.1514H171.181V31.3333H169.994ZM170.597 19.4014C170.354 19.4014 170.147 19.3197 169.974 19.1562C169.802 18.9882 169.716 18.7872 169.716 18.5529C169.716 18.3187 169.802 18.1199 169.974 17.9564C170.147 17.7884 170.354 17.7045 170.597 17.7045C170.84 17.7045 171.048 17.7884 171.221 17.9564C171.393 18.1199 171.479 18.3187 171.479 18.5529C171.479 18.7872 171.393 18.9882 171.221 19.1562C171.048 19.3197 170.84 19.4014 170.597 19.4014ZM175.481 24.9696V31.3333H174.301V21.1514H175.448V22.749H175.554C175.793 22.2275 176.164 21.8099 176.668 21.4961C177.176 21.1779 177.803 21.0189 178.55 21.0189C179.235 21.0189 179.836 21.1625 180.353 21.4497C180.875 21.7326 181.279 22.1502 181.566 22.7026C181.858 23.255 182.004 23.9333 182.004 24.7376V31.3333H180.824V24.8105C180.824 23.9753 180.59 23.3146 180.121 22.8285C179.657 22.3424 179.034 22.0993 178.252 22.0993C177.717 22.0993 177.242 22.2142 176.827 22.444C176.411 22.6738 176.082 23.0053 175.839 23.4384C175.601 23.867 175.481 24.3774 175.481 24.9696ZM191.952 23.3853L190.872 23.6903C190.766 23.3853 190.615 23.1091 190.421 22.8617C190.226 22.6142 189.972 22.4175 189.659 22.2717C189.349 22.1259 188.965 22.0529 188.505 22.0529C187.816 22.0529 187.25 22.2165 186.808 22.5435C186.366 22.8705 186.145 23.2925 186.145 23.8096C186.145 24.2471 186.295 24.6028 186.596 24.8768C186.901 25.1464 187.369 25.3607 188.001 25.5198L189.539 25.8976C190.392 26.1053 191.031 26.4346 191.455 26.8853C191.884 27.3361 192.098 27.9017 192.098 28.5823C192.098 29.1568 191.939 29.6672 191.621 30.1136C191.302 30.5599 190.858 30.9112 190.288 31.1675C189.723 31.4194 189.066 31.5454 188.319 31.5454C187.325 31.5454 186.505 31.3222 185.86 30.8759C185.215 30.4251 184.802 29.7755 184.621 28.927L185.754 28.6486C185.9 29.254 186.185 29.7114 186.609 30.0208C187.038 30.3301 187.601 30.4848 188.3 30.4848C189.082 30.4848 189.707 30.3102 190.176 29.9611C190.644 29.6076 190.878 29.1656 190.878 28.6353C190.878 28.2244 190.741 27.8797 190.467 27.6012C190.193 27.3184 189.778 27.1107 189.221 26.9781L187.557 26.5804C186.673 26.3683 186.019 26.0324 185.595 25.5728C185.171 25.1132 184.959 24.5432 184.959 23.8626C184.959 23.3014 185.111 22.8086 185.416 22.3844C185.721 21.9557 186.141 21.6199 186.676 21.3768C187.21 21.1338 187.82 21.0122 188.505 21.0122C189.438 21.0122 190.182 21.2243 190.739 21.6486C191.3 22.0684 191.705 22.6473 191.952 23.3853ZM198.692 21.1514V22.1789H193.833V21.1514H198.692ZM195.351 18.712H196.538V28.6751C196.538 29.0994 196.61 29.433 196.756 29.6761C196.902 29.9147 197.092 30.0848 197.326 30.1865C197.561 30.2837 197.81 30.3323 198.075 30.3323C198.23 30.3323 198.363 30.3235 198.473 30.3058C198.584 30.2837 198.681 30.2616 198.765 30.2395L199.017 31.3067C198.902 31.3509 198.76 31.3907 198.592 31.4261C198.425 31.4658 198.217 31.4857 197.969 31.4857C197.536 31.4857 197.119 31.3907 196.717 31.2007C196.319 31.0107 195.992 30.7278 195.735 30.3522C195.479 29.9766 195.351 29.5103 195.351 28.9535V18.712ZM204.215 31.5653C203.601 31.5653 203.04 31.4459 202.532 31.2073C202.023 30.9642 201.619 30.6151 201.319 30.16C201.018 29.7004 200.868 29.1435 200.868 28.4895C200.868 27.9857 200.963 27.5615 201.153 27.2168C201.343 26.8721 201.612 26.5892 201.962 26.3683C202.311 26.1473 202.724 25.9728 203.201 25.8446C203.678 25.7165 204.204 25.617 204.779 25.5463C205.349 25.4756 205.831 25.4137 206.224 25.3607C206.622 25.3077 206.924 25.2237 207.132 25.1088C207.34 24.9939 207.444 24.8083 207.444 24.552V24.3134C207.444 23.6196 207.236 23.0738 206.82 22.6761C206.409 22.2739 205.817 22.0728 205.044 22.0728C204.31 22.0728 203.712 22.2341 203.248 22.5567C202.788 22.8793 202.465 23.2594 202.28 23.6969L201.159 23.2925C201.389 22.7357 201.707 22.2916 202.114 21.9601C202.521 21.6243 202.976 21.3834 203.48 21.2376C203.983 21.0874 204.494 21.0122 205.011 21.0122C205.4 21.0122 205.804 21.063 206.224 21.1647C206.648 21.2663 207.041 21.4431 207.404 21.695C207.766 21.9425 208.06 22.2894 208.285 22.7357C208.511 23.1776 208.623 23.7389 208.623 24.4194V31.3333H207.444V29.7225H207.371C207.229 30.023 207.019 30.3146 206.741 30.5975C206.462 30.8803 206.113 31.1123 205.694 31.2935C205.274 31.4747 204.781 31.5653 204.215 31.5653ZM204.374 30.4848C205.002 30.4848 205.546 30.3456 206.005 30.0672C206.465 29.7887 206.818 29.4197 207.066 28.9601C207.318 28.4961 207.444 27.9857 207.444 27.4289V25.9573C207.355 26.0413 207.207 26.1164 206.999 26.1827C206.796 26.249 206.56 26.3086 206.29 26.3617C206.025 26.4103 205.76 26.4523 205.495 26.4876C205.23 26.523 204.991 26.5539 204.779 26.5804C204.204 26.6511 203.714 26.7616 203.307 26.9119C202.901 27.0621 202.589 27.2698 202.373 27.535C202.156 27.7957 202.048 28.1315 202.048 28.5425C202.048 29.1612 202.269 29.6407 202.711 29.981C203.153 30.3168 203.707 30.4848 204.374 30.4848ZM212.942 24.9696V31.3333H211.762V21.1514H212.909V22.749H213.015C213.254 22.2275 213.625 21.8099 214.129 21.4961C214.637 21.1779 215.264 21.0189 216.011 21.0189C216.696 21.0189 217.297 21.1625 217.814 21.4497C218.336 21.7326 218.74 22.1502 219.027 22.7026C219.319 23.255 219.465 23.9333 219.465 24.7376V31.3333H218.285V24.8105C218.285 23.9753 218.051 23.3146 217.582 22.8285C217.118 22.3424 216.495 22.0993 215.713 22.0993C215.178 22.0993 214.703 22.2142 214.288 22.444C213.872 22.6738 213.543 23.0053 213.3 23.4384C213.061 23.867 212.942 24.3774 212.942 24.9696ZM226.583 21.1514V22.1789H221.724V21.1514H226.583ZM223.242 18.712H224.428V28.6751C224.428 29.0994 224.501 29.433 224.647 29.6761C224.793 29.9147 224.983 30.0848 225.217 30.1865C225.451 30.2837 225.701 30.3323 225.966 30.3323C226.121 30.3323 226.253 30.3235 226.364 30.3058C226.474 30.2837 226.571 30.2616 226.655 30.2395L226.907 31.3067C226.792 31.3509 226.651 31.3907 226.483 31.4261C226.315 31.4658 226.107 31.4857 225.86 31.4857C225.427 31.4857 225.009 31.3907 224.607 31.2007C224.209 31.0107 223.882 30.7278 223.626 30.3522C223.37 29.9766 223.242 29.5103 223.242 28.9535V18.712ZM241.353 23.3853L240.273 23.6903C240.167 23.3853 240.016 23.1091 239.822 22.8617C239.627 22.6142 239.373 22.4175 239.06 22.2717C238.75 22.1259 238.366 22.0529 237.906 22.0529C237.217 22.0529 236.651 22.2165 236.209 22.5435C235.767 22.8705 235.546 23.2925 235.546 23.8096C235.546 24.2471 235.697 24.6028 235.997 24.8768C236.302 25.1464 236.77 25.3607 237.402 25.5198L238.94 25.8976C239.793 26.1053 240.432 26.4346 240.856 26.8853C241.285 27.3361 241.499 27.9017 241.499 28.5823C241.499 29.1568 241.34 29.6672 241.022 30.1136C240.703 30.5599 240.259 30.9112 239.689 31.1675C239.124 31.4194 238.467 31.5454 237.721 31.5454C236.726 31.5454 235.906 31.3222 235.261 30.8759C234.616 30.4251 234.203 29.7755 234.022 28.927L235.155 28.6486C235.301 29.254 235.586 29.7114 236.01 30.0208C236.439 30.3301 237.002 30.4848 237.701 30.4848C238.483 30.4848 239.108 30.3102 239.577 29.9611C240.045 29.6076 240.279 29.1656 240.279 28.6353C240.279 28.2244 240.142 27.8797 239.868 27.6012C239.594 27.3184 239.179 27.1107 238.622 26.9781L236.958 26.5804C236.074 26.3683 235.42 26.0324 234.996 25.5728C234.572 25.1132 234.36 24.5432 234.36 23.8626C234.36 23.3014 234.512 22.8086 234.817 22.3844C235.122 21.9557 235.542 21.6199 236.077 21.3768C236.611 21.1338 237.221 21.0122 237.906 21.0122C238.839 21.0122 239.583 21.2243 240.14 21.6486C240.701 22.0684 241.106 22.6473 241.353 23.3853ZM248.04 31.5454C247.16 31.5454 246.383 31.3222 245.707 30.8759C245.035 30.4295 244.509 29.813 244.129 29.0264C243.749 28.2354 243.559 27.3228 243.559 26.2887C243.559 25.2458 243.749 24.3288 244.129 23.5378C244.509 22.7423 245.035 22.1237 245.707 21.6817C246.383 21.2354 247.16 21.0122 248.04 21.0122C248.919 21.0122 249.695 21.2354 250.367 21.6817C251.038 22.1281 251.564 22.7468 251.944 23.5378C252.329 24.3288 252.521 25.2458 252.521 26.2887C252.521 27.3228 252.331 28.2354 251.951 29.0264C251.571 29.813 251.043 30.4295 250.367 30.8759C249.695 31.3222 248.919 31.5454 248.04 31.5454ZM248.04 30.4649C248.747 30.4649 249.346 30.2749 249.836 29.8948C250.327 29.5148 250.698 29.0088 250.95 28.3768C251.206 27.7449 251.334 27.0488 251.334 26.2887C251.334 25.5286 251.206 24.8304 250.95 24.194C250.698 23.5577 250.327 23.0473 249.836 22.6628C249.346 22.2783 248.747 22.0861 248.04 22.0861C247.337 22.0861 246.738 22.2783 246.244 22.6628C245.753 23.0473 245.38 23.5577 245.123 24.194C244.871 24.8304 244.745 25.5286 244.745 26.2887C244.745 27.0488 244.871 27.7449 245.123 28.3768C245.38 29.0088 245.753 29.5148 246.244 29.8948C246.734 30.2749 247.333 30.4649 248.04 30.4649ZM261.581 27.4422V21.1514H262.761V31.3333H261.581V29.6429H261.488C261.249 30.1644 260.872 30.5997 260.355 30.9488C259.837 31.2935 259.206 31.4658 258.459 31.4658C257.809 31.4658 257.232 31.3244 256.729 31.0416C256.225 30.7543 255.829 30.3345 255.542 29.7821C255.255 29.2297 255.111 28.5514 255.111 27.7471V21.1514H256.291V27.6742C256.291 28.4696 256.525 29.1104 256.994 29.5965C257.462 30.0782 258.063 30.319 258.797 30.319C259.256 30.319 259.698 30.2086 260.123 29.9876C260.547 29.7666 260.896 29.444 261.17 29.0198C261.444 28.5911 261.581 28.0653 261.581 27.4422ZM267.065 17.7575V31.3333H265.885V17.7575H267.065ZM274.197 21.1514V22.1789H269.338V21.1514H274.197ZM270.856 18.712H272.043V28.6751C272.043 29.0994 272.116 29.433 272.261 29.6761C272.407 29.9147 272.597 30.0848 272.832 30.1865C273.066 30.2837 273.315 30.3323 273.581 30.3323C273.735 30.3323 273.868 30.3235 273.978 30.3058C274.089 30.2837 274.186 30.2616 274.27 30.2395L274.522 31.3067C274.407 31.3509 274.266 31.3907 274.098 31.4261C273.93 31.4658 273.722 31.4857 273.475 31.4857C273.041 31.4857 272.624 31.3907 272.222 31.2007C271.824 31.0107 271.497 30.7278 271.241 30.3522C270.984 29.9766 270.856 29.5103 270.856 28.9535V18.712ZM276.89 31.3333V21.1514H278.077V31.3333H276.89ZM277.493 19.4014C277.25 19.4014 277.043 19.3197 276.87 19.1562C276.698 18.9882 276.612 18.7872 276.612 18.5529C276.612 18.3187 276.698 18.1199 276.87 17.9564C277.043 17.7884 277.25 17.7045 277.493 17.7045C277.736 17.7045 277.944 17.7884 278.116 17.9564C278.289 18.1199 278.375 18.3187 278.375 18.5529C278.375 18.7872 278.289 18.9882 278.116 19.1562C277.944 19.3197 277.736 19.4014 277.493 19.4014ZM285.154 31.5454C284.275 31.5454 283.497 31.3222 282.821 30.8759C282.149 30.4295 281.624 29.813 281.244 29.0264C280.863 28.2354 280.673 27.3228 280.673 26.2887C280.673 25.2458 280.863 24.3288 281.244 23.5378C281.624 22.7423 282.149 22.1237 282.821 21.6817C283.497 21.2354 284.275 21.0122 285.154 21.0122C286.034 21.0122 286.809 21.2354 287.481 21.6817C288.153 22.1281 288.679 22.7468 289.059 23.5378C289.443 24.3288 289.636 25.2458 289.636 26.2887C289.636 27.3228 289.446 28.2354 289.065 29.0264C288.685 29.813 288.157 30.4295 287.481 30.8759C286.809 31.3222 286.034 31.5454 285.154 31.5454ZM285.154 30.4649C285.862 30.4649 286.46 30.2749 286.951 29.8948C287.441 29.5148 287.813 29.0088 288.065 28.3768C288.321 27.7449 288.449 27.0488 288.449 26.2887C288.449 25.5286 288.321 24.8304 288.065 24.194C287.813 23.5577 287.441 23.0473 286.951 22.6628C286.46 22.2783 285.862 22.0861 285.154 22.0861C284.452 22.0861 283.853 22.2783 283.358 22.6628C282.868 23.0473 282.494 23.5577 282.238 24.194C281.986 24.8304 281.86 25.5286 281.86 26.2887C281.86 27.0488 281.986 27.7449 282.238 28.3768C282.494 29.0088 282.868 29.5148 283.358 29.8948C283.849 30.2749 284.447 30.4649 285.154 30.4649ZM293.406 24.9696V31.3333H292.226V21.1514H293.373V22.749H293.479C293.717 22.2275 294.088 21.8099 294.592 21.4961C295.1 21.1779 295.728 21.0189 296.475 21.0189C297.16 21.0189 297.761 21.1625 298.278 21.4497C298.799 21.7326 299.204 22.1502 299.491 22.7026C299.783 23.255 299.928 23.9333 299.928 24.7376V31.3333H298.748V24.8105C298.748 23.9753 298.514 23.3146 298.046 22.8285C297.582 22.3424 296.959 22.0993 296.177 22.0993C295.642 22.0993 295.167 22.2142 294.751 22.444C294.336 22.6738 294.007 23.0053 293.764 23.4384C293.525 23.867 293.406 24.3774 293.406 24.9696ZM309.877 23.3853L308.796 23.6903C308.69 23.3853 308.54 23.1091 308.345 22.8617C308.151 22.6142 307.897 22.4175 307.583 22.2717C307.274 22.1259 306.889 22.0529 306.43 22.0529C305.74 22.0529 305.175 22.2165 304.733 22.5435C304.291 22.8705 304.07 23.2925 304.07 23.8096C304.07 24.2471 304.22 24.6028 304.52 24.8768C304.825 25.1464 305.294 25.3607 305.926 25.5198L307.464 25.8976C308.317 26.1053 308.955 26.4346 309.379 26.8853C309.808 27.3361 310.022 27.9017 310.022 28.5823C310.022 29.1568 309.863 29.6672 309.545 30.1136C309.227 30.5599 308.783 30.9112 308.213 31.1675C307.647 31.4194 306.991 31.5454 306.244 31.5454C305.25 31.5454 304.43 31.3222 303.785 30.8759C303.139 30.4251 302.726 29.7755 302.545 28.927L303.679 28.6486C303.824 29.254 304.11 29.7114 304.534 30.0208C304.962 30.3301 305.526 30.4848 306.224 30.4848C307.006 30.4848 307.632 30.3102 308.1 29.9611C308.568 29.6076 308.803 29.1656 308.803 28.6353C308.803 28.2244 308.666 27.8797 308.392 27.6012C308.118 27.3184 307.702 27.1107 307.145 26.9781L305.482 26.5804C304.598 26.3683 303.944 26.0324 303.52 25.5728C303.095 25.1132 302.883 24.5432 302.883 23.8626C302.883 23.3014 303.036 22.8086 303.341 22.3844C303.645 21.9557 304.065 21.6199 304.6 21.3768C305.135 21.1338 305.745 21.0122 306.43 21.0122C307.362 21.0122 308.107 21.2243 308.663 21.6486C309.225 22.0684 309.629 22.6473 309.877 23.3853Z" fill="white"/>
<defs>
<clipPath id="paint1_diamond_2_2756_clip_path"><path d="M25.2777 0V0.666667H305.611V0V-0.666667H25.2777V0ZM305.611 49.6667V49H25.2777V49.6667V50.3333H305.611V49.6667ZM25.2777 49.6667V49C11.9308 49 1.111 38.1802 1.111 24.8333H0.444336H-0.222331C-0.222331 38.9166 11.1944 50.3333 25.2777 50.3333V49.6667ZM330.444 24.8333H329.778C329.778 38.1802 318.958 49 305.611 49V49.6667V50.3333C319.694 50.3333 331.111 38.9166 331.111 24.8333H330.444ZM305.611 0V0.666667C318.958 0.666667 329.778 11.4865 329.778 24.8333H330.444H331.111C331.111 10.7501 319.694 -0.666667 305.611 -0.666667V0ZM25.2777 0V-0.666667C11.1944 -0.666667 -0.222331 10.7501 -0.222331 24.8333H0.444336H1.111C1.111 11.4865 11.9308 0.666667 25.2777 0.666667V0Z" mask="url(#path-1-inside-1_2_2756)"/></clipPath><radialGradient id="paint0_radial_2_2756" cx="0" cy="0" r="1" gradientUnits="userSpaceOnUse" gradientTransform="translate(165.444 24.8333) rotate(0.0750331) scale(512.511 77.1354)">
<stop/>
<stop offset="1" stop-color="#2CCEBA"/>
</radialGradient>
<linearGradient id="paint1_diamond_2_2756" x1="0" y1="0" x2="500" y2="500" gradientUnits="userSpaceOnUse">
<stop stop-color="white"/>
<stop offset="1" stop-color="#2CCEBA"/>
</linearGradient>
<linearGradient id="paint2_linear_2_2756" x1="34.6842" y1="16.2576" x2="19.9878" y2="20.5084" gradientUnits="userSpaceOnUse">
<stop stop-color="#087137"/>
<stop offset="0.455" stop-color="#22C1AD"/>
<stop offset="1" stop-color="white"/>
</linearGradient>
</defs>
</svg>
