<svg width="1594" height="942" viewBox="0 0 1594 942" fill="none" xmlns="http://www.w3.org/2000/svg">
<circle cx="167.333" cy="280.667" r="2" fill="#858585"/>
<circle cx="184.667" cy="295.333" r="2" fill="#858585"/>
<circle cx="315.333" cy="264.667" r="2" fill="#858585"/>
<circle cx="156" cy="600" r="1.33333" fill="#858585"/>
<circle cx="297.333" cy="264" r="1.33333" fill="#858585"/>
<circle cx="138.666" cy="600" r="1.33333" fill="#858585"/>
<circle cx="248.667" cy="359.333" r="2" transform="rotate(90 248.667 359.333)" fill="#858585"/>
<circle cx="235.333" cy="152.667" r="2" transform="rotate(90 235.333 152.667)" fill="#858585"/>
<circle cx="99.333" cy="704.667" r="2" transform="rotate(90 99.333 704.667)" fill="#858585"/>
<circle cx="588.667" cy="22" r="2" transform="rotate(90 588.667 22)" fill="#858585"/>
<circle cx="167.333" cy="296.667" r="2" fill="#858585"/>
<circle cx="184.667" cy="311.333" r="2" fill="#858585"/>
<circle cx="315.333" cy="280.667" r="2" fill="#858585"/>
<circle cx="156" cy="616" r="1.33333" fill="#858585"/>
<circle cx="232.667" cy="359.333" r="2" transform="rotate(90 232.667 359.333)" fill="#858585"/>
<circle cx="218" cy="135.333" r="2" transform="rotate(90 218 135.333)" fill="#858585"/>
<circle cx="82" cy="687.333" r="2" transform="rotate(90 82 687.333)" fill="#858585"/>
<circle cx="555.333" cy="38" r="2" transform="rotate(90 555.333 38)" fill="#858585"/>
<circle cx="168.667" cy="328.667" r="2" fill="#858585"/>
<circle cx="186" cy="343.333" r="2" fill="#858585"/>
<circle cx="315.333" cy="312.667" r="2" fill="#858585"/>
<circle cx="156" cy="648" r="1.33333" fill="#858585"/>
<circle cx="314.666" cy="329.333" r="1.33333" fill="#858585"/>
<circle cx="156" cy="665.333" r="1.33333" fill="#858585"/>
<circle cx="315.333" cy="295.333" r="2" fill="#858585"/>
<circle cx="156" cy="630.667" r="1.33333" fill="#858585"/>
<circle cx="216.667" cy="376.667" r="2" transform="rotate(90 216.667 376.667)" fill="#858585"/>
<circle cx="1.33333" cy="501.333" r="1.33333" fill="#858585"/>
<circle cx="18.6663" cy="516" r="1.33333" fill="#858585"/>
<circle cx="83.9997" cy="580" r="1.33333" transform="rotate(90 83.9997 580)" fill="#858585"/>
<circle cx="1.33333" cy="517.333" r="1.33333" fill="#858585"/>
<circle cx="18.6663" cy="532" r="1.33333" fill="#858585"/>
<circle cx="67.9997" cy="580" r="1.33333" transform="rotate(90 67.9997 580)" fill="#858585"/>
<circle cx="2.66634" cy="549.333" r="1.33333" fill="#858585"/>
<circle cx="19.9998" cy="564" r="1.33333" fill="#858585"/>
<circle cx="51.9997" cy="597.333" r="1.33333" transform="rotate(90 51.9997 597.333)" fill="#858585"/>
<circle cx="200.667" cy="151.333" r="2" transform="rotate(90 200.667 151.333)" fill="#858585"/>
<circle cx="64.6665" cy="703.333" r="2" transform="rotate(90 64.6665 703.333)" fill="#858585"/>
<circle cx="420.667" cy="19.3333" r="2" transform="rotate(90 420.667 19.3333)" fill="#858585"/>
<circle cx="403.333" cy="2" r="2" transform="rotate(90 403.333 2)" fill="#858585"/>
<circle cx="386" cy="18" r="2" transform="rotate(90 386 18)" fill="#858585"/>
<circle cx="344.667" cy="72.6666" r="2" transform="rotate(90 344.667 72.6666)" fill="#858585"/>
<circle cx="380.667" cy="104.667" r="2" transform="rotate(90 380.667 104.667)" fill="#858585"/>
<circle cx="539.333" cy="55.3333" r="2" transform="rotate(90 539.333 55.3333)" fill="#858585"/>
<circle cx="490" cy="102" r="2" fill="#858585"/>
<circle cx="472.667" cy="119.333" r="2" fill="#858585"/>
<circle cx="488.667" cy="136.667" r="2" fill="#858585"/>
<circle cx="554.666" cy="136" r="1.33333" transform="rotate(-90 554.666 136)" fill="#858585"/>
<circle cx="572" cy="153.333" r="1.33333" transform="rotate(-90 572 153.333)" fill="#858585"/>
<circle cx="589.333" cy="137.333" r="1.33333" transform="rotate(-90 589.333 137.333)" fill="#858585"/>
<circle cx="1072.67" cy="135.333" r="2" transform="rotate(180 1072.67 135.333)" fill="#858585"/>
<circle cx="1331.33" cy="327.333" r="2" transform="rotate(180 1331.33 327.333)" fill="#858585"/>
<circle cx="1362" cy="199.333" r="2" transform="rotate(180 1362 199.333)" fill="#858585"/>
<circle cx="1395.33" cy="263.333" r="2" transform="rotate(180 1395.33 263.333)" fill="#858585"/>
<circle cx="1396.67" cy="344.667" r="2" transform="rotate(-90 1396.67 344.667)" fill="#858585"/>
<circle cx="1379.33" cy="327.333" r="2" fill="#858585"/>
<circle cx="1090.67" cy="136" r="1.33333" transform="rotate(180 1090.67 136)" fill="#858585"/>
<circle cx="1349.33" cy="328" r="1.33333" transform="rotate(180 1349.33 328)" fill="#858585"/>
<circle cx="1378.67" cy="169.333" r="1.33333" transform="rotate(180 1378.67 169.333)" fill="#858585"/>
<circle cx="1201.33" cy="152" r="1.33333" transform="rotate(180 1201.33 152)" fill="#858585"/>
<circle cx="1412" cy="296" r="1.33333" transform="rotate(90 1412 296)" fill="#858585"/>
<circle cx="1072.67" cy="119.333" r="2" transform="rotate(180 1072.67 119.333)" fill="#858585"/>
<circle cx="1331.33" cy="311.333" r="2" transform="rotate(180 1331.33 311.333)" fill="#858585"/>
<circle cx="1363.33" cy="183.333" r="2" transform="rotate(180 1363.33 183.333)" fill="#858585"/>
<circle cx="1396.67" cy="247.333" r="2" transform="rotate(180 1396.67 247.333)" fill="#858585"/>
<circle cx="1412.67" cy="344.667" r="2" transform="rotate(-90 1412.67 344.667)" fill="#858585"/>
<circle cx="1379.33" cy="359.333" r="2" fill="#858585"/>
<circle cx="1201.33" cy="168" r="1.33333" transform="rotate(180 1201.33 168)" fill="#858585"/>
<circle cx="1428" cy="296" r="1.33333" transform="rotate(90 1428 296)" fill="#858585"/>
<circle cx="1072.67" cy="104.667" r="2" transform="rotate(180 1072.67 104.667)" fill="#858585"/>
<circle cx="1331.33" cy="296.667" r="2" transform="rotate(180 1331.33 296.667)" fill="#858585"/>
<circle cx="1315.33" cy="248.667" r="2" transform="rotate(180 1315.33 248.667)" fill="#858585"/>
<circle cx="1315.33" cy="280.667" r="2" transform="rotate(180 1315.33 280.667)" fill="#858585"/>
<circle cx="1299.33" cy="295.333" r="2" transform="rotate(180 1299.33 295.333)" fill="#858585"/>
<circle cx="1267.33" cy="296.667" r="2" transform="rotate(180 1267.33 296.667)" fill="#858585"/>
<circle cx="1233.33" cy="216" r="1.33333" transform="rotate(-90 1233.33 216)" fill="#858585"/>
<circle cx="1250.67" cy="233.333" r="1.33333" transform="rotate(-90 1250.67 233.333)" fill="#858585"/>
<circle cx="1268" cy="217.333" r="1.33333" transform="rotate(-90 1268 217.333)" fill="#858585"/>
<circle cx="1186" cy="279.333" r="2" transform="rotate(-90 1186 279.333)" fill="#858585"/>
<circle cx="1186" cy="279.333" r="2" transform="rotate(-90 1186 279.333)" fill="#858585"/>
<circle cx="1186" cy="296.667" r="2" transform="rotate(-90 1186 296.667)" fill="#858585"/>
<circle cx="1154" cy="296.667" r="2" transform="rotate(-90 1154 296.667)" fill="#858585"/>
<circle cx="1170" cy="312.667" r="2" transform="rotate(-90 1170 312.667)" fill="#858585"/>
<circle cx="1185.33" cy="152" r="1.33333" transform="rotate(180 1185.33 152)" fill="#858585"/>
<circle cx="1412" cy="312" r="1.33333" transform="rotate(90 1412 312)" fill="#858585"/>
<circle cx="1283.33" cy="360.667" r="2" transform="rotate(180 1283.33 360.667)" fill="#858585"/>
<circle cx="1267.33" cy="343.333" r="2" transform="rotate(180 1267.33 343.333)" fill="#858585"/>
<circle cx="1251.33" cy="328.667" r="2" transform="rotate(180 1251.33 328.667)" fill="#858585"/>
<circle cx="1236.67" cy="471.333" r="2" transform="rotate(180 1236.67 471.333)" fill="#858585"/>
<circle cx="1495.33" cy="663.333" r="2" transform="rotate(180 1495.33 663.333)" fill="#858585"/>
<circle cx="1526" cy="535.333" r="2" transform="rotate(180 1526 535.333)" fill="#858585"/>
<circle cx="1559.33" cy="599.333" r="2" transform="rotate(180 1559.33 599.333)" fill="#858585"/>
<circle cx="1560.67" cy="680.667" r="2" transform="rotate(-90 1560.67 680.667)" fill="#858585"/>
<circle cx="1543.33" cy="663.333" r="2" fill="#858585"/>
<circle cx="1254.67" cy="472" r="1.33333" transform="rotate(180 1254.67 472)" fill="#858585"/>
<circle cx="1513.33" cy="664" r="1.33333" transform="rotate(180 1513.33 664)" fill="#858585"/>
<circle cx="1542.67" cy="505.333" r="1.33333" transform="rotate(180 1542.67 505.333)" fill="#858585"/>
<circle cx="1365.33" cy="488" r="1.33333" transform="rotate(180 1365.33 488)" fill="#858585"/>
<circle cx="1576" cy="632" r="1.33333" transform="rotate(90 1576 632)" fill="#858585"/>
<circle cx="1236.67" cy="455.333" r="2" transform="rotate(180 1236.67 455.333)" fill="#858585"/>
<circle cx="1495.33" cy="647.333" r="2" transform="rotate(180 1495.33 647.333)" fill="#858585"/>
<circle cx="1527.33" cy="519.333" r="2" transform="rotate(180 1527.33 519.333)" fill="#858585"/>
<circle cx="1560.67" cy="583.333" r="2" transform="rotate(180 1560.67 583.333)" fill="#858585"/>
<circle cx="1576.67" cy="680.667" r="2" transform="rotate(-90 1576.67 680.667)" fill="#858585"/>
<circle cx="1543.33" cy="695.333" r="2" fill="#858585"/>
<circle cx="1365.33" cy="504" r="1.33333" transform="rotate(180 1365.33 504)" fill="#858585"/>
<circle cx="1592" cy="632" r="1.33333" transform="rotate(90 1592 632)" fill="#858585"/>
<circle cx="1236.67" cy="440.667" r="2" transform="rotate(180 1236.67 440.667)" fill="#858585"/>
<circle cx="1495.33" cy="632.667" r="2" transform="rotate(180 1495.33 632.667)" fill="#858585"/>
<circle cx="1479.33" cy="584.667" r="2" transform="rotate(180 1479.33 584.667)" fill="#858585"/>
<circle cx="1479.33" cy="616.667" r="2" transform="rotate(180 1479.33 616.667)" fill="#858585"/>
<circle cx="1463.33" cy="631.333" r="2" transform="rotate(180 1463.33 631.333)" fill="#858585"/>
<circle cx="1431.33" cy="632.667" r="2" transform="rotate(180 1431.33 632.667)" fill="#858585"/>
<circle cx="1397.33" cy="552" r="1.33333" transform="rotate(-90 1397.33 552)" fill="#858585"/>
<circle cx="1414.67" cy="569.333" r="1.33333" transform="rotate(-90 1414.67 569.333)" fill="#858585"/>
<circle cx="1432" cy="553.333" r="1.33333" transform="rotate(-90 1432 553.333)" fill="#858585"/>
<circle cx="1350" cy="615.333" r="2" transform="rotate(-90 1350 615.333)" fill="#858585"/>
<circle cx="1350" cy="615.333" r="2" transform="rotate(-90 1350 615.333)" fill="#858585"/>
<circle cx="1350" cy="632.667" r="2" transform="rotate(-90 1350 632.667)" fill="#858585"/>
<circle cx="1318" cy="632.667" r="2" transform="rotate(-90 1318 632.667)" fill="#858585"/>
<circle cx="1334" cy="648.667" r="2" transform="rotate(-90 1334 648.667)" fill="#858585"/>
<circle cx="1349.33" cy="488" r="1.33333" transform="rotate(180 1349.33 488)" fill="#858585"/>
<circle cx="1576" cy="648" r="1.33333" transform="rotate(90 1576 648)" fill="#858585"/>
<circle cx="1447.33" cy="696.667" r="2" transform="rotate(180 1447.33 696.667)" fill="#858585"/>
<circle cx="1431.33" cy="679.333" r="2" transform="rotate(180 1431.33 679.333)" fill="#858585"/>
<circle cx="1415.33" cy="664.667" r="2" transform="rotate(180 1415.33 664.667)" fill="#858585"/>
<circle cx="1026.67" cy="714.667" r="1.33333" transform="rotate(180 1026.67 714.667)" fill="#858585"/>
<circle cx="1285.33" cy="906.667" r="1.33333" transform="rotate(180 1285.33 906.667)" fill="#858585"/>
<circle cx="1316" cy="778.667" r="1.33333" transform="rotate(180 1316 778.667)" fill="#858585"/>
<circle cx="1349.33" cy="842.667" r="1.33333" transform="rotate(180 1349.33 842.667)" fill="#858585"/>
<circle cx="1349.33" cy="924" r="1.33333" transform="rotate(-90 1349.33 924)" fill="#858585"/>
<circle cx="1332" cy="905.333" r="1.33333" fill="#858585"/>
<circle cx="1044" cy="714.667" r="1.33333" transform="rotate(180 1044 714.667)" fill="#858585"/>
<circle cx="1302.67" cy="906.667" r="1.33333" transform="rotate(180 1302.67 906.667)" fill="#858585"/>
<circle cx="1332" cy="748" r="1.33333" transform="rotate(180 1332 748)" fill="#858585"/>
<circle cx="1154.67" cy="730.667" r="1.33333" transform="rotate(180 1154.67 730.667)" fill="#858585"/>
<circle cx="1365.33" cy="874.667" r="1.33333" transform="rotate(90 1365.33 874.667)" fill="#858585"/>
<circle cx="1026.67" cy="698.667" r="1.33333" transform="rotate(180 1026.67 698.667)" fill="#858585"/>
<circle cx="1285.33" cy="890.667" r="1.33333" transform="rotate(180 1285.33 890.667)" fill="#858585"/>
<circle cx="1317.33" cy="762.667" r="1.33333" transform="rotate(180 1317.33 762.667)" fill="#858585"/>
<circle cx="1350.67" cy="826.667" r="1.33333" transform="rotate(180 1350.67 826.667)" fill="#858585"/>
<circle cx="1365.33" cy="924" r="1.33333" transform="rotate(-90 1365.33 924)" fill="#858585"/>
<circle cx="1332" cy="937.333" r="1.33333" fill="#858585"/>
<circle cx="1154.67" cy="746.667" r="1.33333" transform="rotate(180 1154.67 746.667)" fill="#858585"/>
<circle cx="1381.33" cy="874.667" r="1.33333" transform="rotate(90 1381.33 874.667)" fill="#858585"/>
<circle cx="1026.67" cy="684" r="1.33333" transform="rotate(180 1026.67 684)" fill="#858585"/>
<circle cx="1285.33" cy="876" r="1.33333" transform="rotate(180 1285.33 876)" fill="#858585"/>
<circle cx="1268.67" cy="827.333" r="2" transform="rotate(180 1268.67 827.333)" fill="#858585"/>
<circle cx="1269.33" cy="860" r="1.33333" transform="rotate(180 1269.33 860)" fill="#858585"/>
<circle cx="1253.33" cy="874.667" r="1.33333" transform="rotate(180 1253.33 874.667)" fill="#858585"/>
<circle cx="1221.33" cy="876" r="1.33333" transform="rotate(180 1221.33 876)" fill="#858585"/>
<circle cx="1186.67" cy="794.667" r="1.33333" transform="rotate(-90 1186.67 794.667)" fill="#858585"/>
<circle cx="1204" cy="812" r="1.33333" transform="rotate(-90 1204 812)" fill="#858585"/>
<circle cx="1221.33" cy="796" r="1.33333" transform="rotate(-90 1221.33 796)" fill="#858585"/>
<circle cx="1138.67" cy="858.667" r="1.33333" transform="rotate(-90 1138.67 858.667)" fill="#858585"/>
<circle cx="1138.67" cy="858.667" r="1.33333" transform="rotate(-90 1138.67 858.667)" fill="#858585"/>
<circle cx="1138.67" cy="876" r="1.33333" transform="rotate(-90 1138.67 876)" fill="#858585"/>
<circle cx="1106.67" cy="876" r="1.33333" transform="rotate(-90 1106.67 876)" fill="#858585"/>
<circle cx="1122.67" cy="892" r="1.33333" transform="rotate(-90 1122.67 892)" fill="#858585"/>
<circle cx="1138.67" cy="730.667" r="1.33333" transform="rotate(180 1138.67 730.667)" fill="#858585"/>
<circle cx="1365.33" cy="890.667" r="1.33333" transform="rotate(90 1365.33 890.667)" fill="#858585"/>
<circle cx="1237.33" cy="940" r="1.33333" transform="rotate(180 1237.33 940)" fill="#858585"/>
<circle cx="1221.33" cy="922.667" r="1.33333" transform="rotate(180 1221.33 922.667)" fill="#858585"/>
<circle cx="1205.33" cy="908" r="1.33333" transform="rotate(180 1205.33 908)" fill="#858585"/>
<circle cx="548" cy="714.667" r="1.33333" transform="rotate(180 548 714.667)" fill="#858585"/>
<circle cx="806.667" cy="906.667" r="1.33333" transform="rotate(180 806.667 906.667)" fill="#858585"/>
<circle cx="837.334" cy="778.667" r="1.33333" transform="rotate(180 837.334 778.667)" fill="#858585"/>
<circle cx="870.667" cy="842.667" r="1.33333" transform="rotate(180 870.667 842.667)" fill="#858585"/>
<circle cx="870.667" cy="924" r="1.33333" transform="rotate(-90 870.667 924)" fill="#858585"/>
<circle cx="853.333" cy="905.333" r="1.33333" fill="#858585"/>
<circle cx="565.334" cy="714.667" r="1.33333" transform="rotate(180 565.334 714.667)" fill="#858585"/>
<circle cx="824" cy="906.667" r="1.33333" transform="rotate(180 824 906.667)" fill="#858585"/>
<circle cx="853.334" cy="748" r="1.33333" transform="rotate(180 853.334 748)" fill="#858585"/>
<circle cx="676" cy="730.667" r="1.33333" transform="rotate(180 676 730.667)" fill="#858585"/>
<circle cx="886.667" cy="874.667" r="1.33333" transform="rotate(90 886.667 874.667)" fill="#858585"/>
<circle cx="548" cy="698.667" r="1.33333" transform="rotate(180 548 698.667)" fill="#858585"/>
<circle cx="806.667" cy="890.667" r="1.33333" transform="rotate(180 806.667 890.667)" fill="#858585"/>
<circle cx="838.667" cy="762.667" r="1.33333" transform="rotate(180 838.667 762.667)" fill="#858585"/>
<circle cx="872" cy="826.667" r="1.33333" transform="rotate(180 872 826.667)" fill="#858585"/>
<circle cx="886.667" cy="924" r="1.33333" transform="rotate(-90 886.667 924)" fill="#858585"/>
<circle cx="853.333" cy="937.333" r="1.33333" fill="#858585"/>
<circle cx="676" cy="746.667" r="1.33333" transform="rotate(180 676 746.667)" fill="#858585"/>
<circle cx="902.667" cy="874.667" r="1.33333" transform="rotate(90 902.667 874.667)" fill="#858585"/>
<circle cx="548" cy="684" r="1.33333" transform="rotate(180 548 684)" fill="#858585"/>
<circle cx="806.667" cy="876" r="1.33333" transform="rotate(180 806.667 876)" fill="#858585"/>
<circle cx="790" cy="827.333" r="2" transform="rotate(180 790 827.333)" fill="#858585"/>
<circle cx="790.667" cy="860" r="1.33333" transform="rotate(180 790.667 860)" fill="#858585"/>
<circle cx="774.667" cy="874.667" r="1.33333" transform="rotate(180 774.667 874.667)" fill="#858585"/>
<circle cx="742.667" cy="876" r="1.33333" transform="rotate(180 742.667 876)" fill="#858585"/>
<circle cx="708" cy="794.667" r="1.33333" transform="rotate(-90 708 794.667)" fill="#858585"/>
<circle cx="725.334" cy="812" r="1.33333" transform="rotate(-90 725.334 812)" fill="#858585"/>
<circle cx="742.667" cy="796" r="1.33333" transform="rotate(-90 742.667 796)" fill="#858585"/>
<circle cx="660" cy="858.667" r="1.33333" transform="rotate(-90 660 858.667)" fill="#858585"/>
<circle cx="660" cy="858.667" r="1.33333" transform="rotate(-90 660 858.667)" fill="#858585"/>
<circle cx="660" cy="876" r="1.33333" transform="rotate(-90 660 876)" fill="#858585"/>
<circle cx="628" cy="876" r="1.33333" transform="rotate(-90 628 876)" fill="#858585"/>
<circle cx="644" cy="892" r="1.33333" transform="rotate(-90 644 892)" fill="#858585"/>
<circle cx="660" cy="730.667" r="1.33333" transform="rotate(180 660 730.667)" fill="#858585"/>
<circle cx="886.667" cy="890.667" r="1.33333" transform="rotate(90 886.667 890.667)" fill="#858585"/>
<circle cx="758.667" cy="940" r="1.33333" transform="rotate(180 758.667 940)" fill="#858585"/>
<circle cx="742.667" cy="922.667" r="1.33333" transform="rotate(180 742.667 922.667)" fill="#858585"/>
<circle cx="726.667" cy="908" r="1.33333" transform="rotate(180 726.667 908)" fill="#858585"/>
<circle cx="69.3332" cy="714.667" r="1.33333" transform="rotate(180 69.3332 714.667)" fill="#858585"/>
<circle cx="328" cy="906.667" r="1.33333" transform="rotate(180 328 906.667)" fill="#858585"/>
<circle cx="358.667" cy="778.667" r="1.33333" transform="rotate(180 358.667 778.667)" fill="#858585"/>
<circle cx="392" cy="842.667" r="1.33333" transform="rotate(180 392 842.667)" fill="#858585"/>
<circle cx="392" cy="924" r="1.33333" transform="rotate(-90 392 924)" fill="#858585"/>
<circle cx="374.666" cy="905.333" r="1.33333" fill="#858585"/>
<circle cx="86.6667" cy="714.667" r="1.33333" transform="rotate(180 86.6667 714.667)" fill="#858585"/>
<circle cx="345.333" cy="906.667" r="1.33333" transform="rotate(180 345.333 906.667)" fill="#858585"/>
<circle cx="374.667" cy="748" r="1.33333" transform="rotate(180 374.667 748)" fill="#858585"/>
<circle cx="197.333" cy="730.667" r="1.33333" transform="rotate(180 197.333 730.667)" fill="#858585"/>
<circle cx="408" cy="874.667" r="1.33333" transform="rotate(90 408 874.667)" fill="#858585"/>
<circle cx="69.3332" cy="698.667" r="1.33333" transform="rotate(180 69.3332 698.667)" fill="#858585"/>
<circle cx="328" cy="890.667" r="1.33333" transform="rotate(180 328 890.667)" fill="#858585"/>
<circle cx="360" cy="762.667" r="1.33333" transform="rotate(180 360 762.667)" fill="#858585"/>
<circle cx="393.333" cy="826.667" r="1.33333" transform="rotate(180 393.333 826.667)" fill="#858585"/>
<circle cx="408" cy="924" r="1.33333" transform="rotate(-90 408 924)" fill="#858585"/>
<circle cx="374.666" cy="937.333" r="1.33333" fill="#858585"/>
<circle cx="197.333" cy="746.667" r="1.33333" transform="rotate(180 197.333 746.667)" fill="#858585"/>
<circle cx="424" cy="874.667" r="1.33333" transform="rotate(90 424 874.667)" fill="#858585"/>
<circle cx="69.3332" cy="684" r="1.33333" transform="rotate(180 69.3332 684)" fill="#858585"/>
<circle cx="328" cy="876" r="1.33333" transform="rotate(180 328 876)" fill="#858585"/>
<circle cx="311.333" cy="827.333" r="2" transform="rotate(180 311.333 827.333)" fill="#858585"/>
<circle cx="312" cy="860" r="1.33333" transform="rotate(180 312 860)" fill="#858585"/>
<circle cx="296" cy="874.667" r="1.33333" transform="rotate(180 296 874.667)" fill="#858585"/>
<circle cx="264" cy="876" r="1.33333" transform="rotate(180 264 876)" fill="#858585"/>
<circle cx="229.333" cy="794.667" r="1.33333" transform="rotate(-90 229.333 794.667)" fill="#858585"/>
<circle cx="246.666" cy="812" r="1.33333" transform="rotate(-90 246.666 812)" fill="#858585"/>
<circle cx="264" cy="796" r="1.33333" transform="rotate(-90 264 796)" fill="#858585"/>
<circle cx="181.333" cy="858.667" r="1.33333" transform="rotate(-90 181.333 858.667)" fill="#858585"/>
<circle cx="181.333" cy="858.667" r="1.33333" transform="rotate(-90 181.333 858.667)" fill="#858585"/>
<circle cx="181.333" cy="876" r="1.33333" transform="rotate(-90 181.333 876)" fill="#858585"/>
<circle cx="149.333" cy="876" r="1.33333" transform="rotate(-90 149.333 876)" fill="#858585"/>
<circle cx="165.333" cy="892" r="1.33333" transform="rotate(-90 165.333 892)" fill="#858585"/>
<circle cx="181.333" cy="730.667" r="1.33333" transform="rotate(180 181.333 730.667)" fill="#858585"/>
<circle cx="408" cy="890.667" r="1.33333" transform="rotate(90 408 890.667)" fill="#858585"/>
<circle cx="280" cy="940" r="1.33333" transform="rotate(180 280 940)" fill="#858585"/>
<circle cx="264" cy="922.667" r="1.33333" transform="rotate(180 264 922.667)" fill="#858585"/>
<circle cx="248" cy="908" r="1.33333" transform="rotate(180 248 908)" fill="#858585"/>
</svg>
