<svg width="22" height="23" viewBox="0 0 22 23" fill="none" xmlns="http://www.w3.org/2000/svg">
<path fill-rule="evenodd" clip-rule="evenodd" d="M20.7542 9.04302C19.7428 10.125 18.0852 10.9484 16.4006 11.2816C18.0852 11.6148 19.7428 12.4381 20.7541 13.5201L21.9023 14.7485L20.2514 15.0673C18.7972 15.3481 16.9722 15.0399 15.4134 14.3192C16.5804 15.5791 17.4375 17.2195 17.6198 18.6893L17.8267 20.3579L16.3037 19.6456C14.9622 19.0181 13.6669 17.6959 12.8294 16.1966C13.033 17.9018 12.7623 19.7328 12.0458 21.029L11.2324 22.5006L10.419 21.029C9.70249 19.7328 9.43172 17.9018 9.63543 16.1966C8.79792 17.6959 7.50267 19.018 6.16107 19.6456L4.63805 20.3579L4.84495 18.6893C5.02722 17.2195 5.88435 15.5791 7.05145 14.3192C5.49263 15.0399 3.66762 15.3482 2.21342 15.0673L0.5625 14.7485L1.7107 13.5201C2.72209 12.438 4.37975 11.6148 6.06443 11.2816C4.3797 10.9483 2.72209 10.125 1.7107 9.04302L0.5625 7.81466L2.21342 7.49578C3.66762 7.21494 5.49268 7.52317 7.05145 8.24385C5.88435 6.98403 5.02722 5.3436 4.84495 3.87379L4.63805 2.20513L6.16113 2.91757C7.50271 3.54505 8.79797 4.86717 9.63549 6.36647C9.43177 4.66127 9.70253 2.83032 10.419 1.53407L11.2325 0.0625L12.0459 1.53407C12.7624 2.83032 13.0332 4.66127 12.8294 6.36647C13.667 4.86717 14.9623 3.54511 16.3039 2.91757L17.827 2.20513L17.62 3.87379C17.4378 5.3436 16.5806 6.98403 15.4135 8.24385C16.9723 7.52317 18.7973 7.21489 20.2515 7.49578L21.9025 7.81466L20.7542 9.04302ZM9.11752 13.3791C10.2706 14.5322 12.1402 14.5322 13.2933 13.3791C14.4464 12.226 14.4464 10.3564 13.2933 9.20324C12.1402 8.05012 10.2706 8.05012 9.11752 9.20324C7.9644 10.3564 7.9644 12.226 9.11752 13.3791Z" fill="#E9E9E9"/>
</svg>
