<svg width="23" height="22" viewBox="0 0 23 22" fill="none" xmlns="http://www.w3.org/2000/svg">
<g clip-path="url(#clip0_1_345)">
<mask id="mask0_1_345" style="mask-type:luminance" maskUnits="userSpaceOnUse" x="0" y="0" width="23" height="22">
<path d="M22.4374 0.0625H0.562408V21.9375H22.4374V0.0625Z" fill="white"/>
</mask>
<g mask="url(#mask0_1_345)">
<path fill-rule="evenodd" clip-rule="evenodd" d="M11.4994 18.6302C12.118 19.3726 12.7365 20.1149 13.9736 20.1149C16.8214 20.1149 17.6439 16.3273 17.645 13.4755C17.645 12.2385 18.3873 11.6199 19.1297 11.0014C19.8721 10.3829 20.6145 9.76434 20.6145 8.52731C20.6145 5.67868 16.8214 4.85504 13.9746 4.85504C12.7376 4.85504 12.119 4.11272 11.5004 3.37039C10.8819 2.62807 10.2633 1.88574 9.02622 1.88574C6.17742 1.88574 5.35373 5.67868 5.35373 8.52521C5.35373 9.76225 4.61163 10.3808 3.86952 10.9993C3.12742 11.6178 2.38531 12.2364 2.38531 13.4734C2.38531 16.322 6.17742 17.1457 9.02517 17.1457C10.2623 17.1457 10.8808 17.8879 11.4994 18.6302ZM11.4999 14.3727C13.3625 14.3727 14.8723 12.8629 14.8723 11.0003C14.8723 9.13781 13.3625 7.62793 11.4999 7.62793C9.63738 7.62793 8.1275 9.13781 8.1275 11.0003C8.1275 12.8629 9.63738 14.3727 11.4999 14.3727Z" fill="#E9E9E9"/>
</g>
</g>
<defs>
<clipPath id="clip0_1_345">
<rect width="21.875" height="21.875" fill="white" transform="translate(0.562408 0.0625)"/>
</clipPath>
</defs>
</svg>
