<svg width="92" height="91" viewBox="0 0 92 91" fill="none" xmlns="http://www.w3.org/2000/svg">
<g filter="url(#filter0_i_2_2579)">
<rect x="0.86145" y="0.333496" width="90.2955" height="90.2955" rx="12.8994" fill="#F8F8F8" fill-opacity="0.01"/>
<rect x="0.86145" y="0.333496" width="90.2955" height="90.2955" rx="12.8994" fill="#121212" fill-opacity="0.3"/>
<rect x="1.66766" y="1.13971" width="88.6831" height="88.6831" rx="12.0932" stroke="url(#paint0_linear_2_2579)" stroke-opacity="0.25" stroke-width="1.61242"/>
<path d="M38.308 19.951C31.1427 20.1143 26.9576 20.7964 24.098 23.646C21.5954 26.14 20.7588 29.6459 20.4791 35.269M53.7102 19.951C60.8755 20.1143 65.0607 20.7964 67.9202 23.646C70.4229 26.14 71.2595 29.6459 71.5391 35.269M53.7102 71.011C60.8755 70.8478 65.0607 70.1657 67.9202 67.3161C70.4229 64.8221 71.2595 61.3162 71.5391 55.693M38.308 71.011C31.1427 70.8478 26.9576 70.1657 24.098 67.3161C21.5954 64.8221 20.7588 61.3162 20.4791 55.693" stroke="#E9E9E9" stroke-width="3.8295" stroke-linecap="round" stroke-linejoin="round"/>
<path d="M34.5206 58.2461C40.4735 52.0112 51.4808 51.7176 57.4976 58.2461M52.3791 39.0986C52.3791 42.6235 49.5175 45.4811 45.9875 45.4811C42.4575 45.4811 39.5959 42.6235 39.5959 39.0986C39.5959 35.5736 42.4575 32.7161 45.9875 32.7161C49.5175 32.7161 52.3791 35.5736 52.3791 39.0986Z" stroke="#E9E9E9" stroke-width="3.8295" stroke-linecap="round"/>
</g>
<defs>
<filter id="filter0_i_2_2579" x="0.86145" y="0.333496" width="90.2955" height="90.2955" filterUnits="userSpaceOnUse" color-interpolation-filters="sRGB">
<feFlood flood-opacity="0" result="BackgroundImageFix"/>
<feBlend mode="normal" in="SourceGraphic" in2="BackgroundImageFix" result="shape"/>
<feColorMatrix in="SourceAlpha" type="matrix" values="0 0 0 0 0 0 0 0 0 0 0 0 0 0 0 0 0 0 127 0" result="hardAlpha"/>
<feOffset/>
<feGaussianBlur stdDeviation="10.951"/>
<feComposite in2="hardAlpha" operator="arithmetic" k2="-1" k3="1"/>
<feColorMatrix type="matrix" values="0 0 0 0 0 0 0 0 0 1 0 0 0 0 0.872727 0 0 0 1 0"/>
<feBlend mode="normal" in2="shape" result="effect1_innerShadow_2_2579"/>
</filter>
<linearGradient id="paint0_linear_2_2579" x1="46.0092" y1="0.333495" x2="85.2896" y2="99.489" gradientUnits="userSpaceOnUse">
<stop stop-color="white" stop-opacity="0.4"/>
<stop offset="0.4" stop-color="white" stop-opacity="0.01"/>
<stop offset="0.6" stop-color="white" stop-opacity="0.01"/>
<stop offset="1" stop-color="white" stop-opacity="0.1"/>
</linearGradient>
</defs>
</svg>
