<svg width="53" height="33" viewBox="0 0 53 33" fill="none" xmlns="http://www.w3.org/2000/svg">
<path fill-rule="evenodd" clip-rule="evenodd" d="M51.4621 31.8562C51.0542 32.2635 50.5014 32.4923 49.9251 32.4923C49.3487 32.4923 48.7959 32.2635 48.3881 31.8562L34.7001 18.1682L23.7729 29.0983C23.5574 29.3138 23.2991 29.4816 23.0146 29.5909C22.7301 29.7001 22.4259 29.7484 22.1216 29.7326C21.8173 29.7167 21.5197 29.6371 21.2481 29.4988C20.9765 29.3606 20.7371 29.1668 20.5452 28.9301C15.5076 22.716 11.7496 15.5665 9.48746 7.89352L4.92286 15.8018C4.63444 16.3018 4.15923 16.6666 3.60178 16.8162C3.04433 16.9658 2.45029 16.8877 1.95036 16.5993C1.45043 16.3109 1.08555 15.8357 0.935986 15.2782C0.786427 14.7208 0.864437 14.1268 1.15286 13.6268L8.33036 1.19742C8.47306 0.949762 8.66317 0.732658 8.88983 0.558521C9.11649 0.384384 9.37525 0.25663 9.65131 0.182564C9.92738 0.108498 10.2153 0.0895729 10.4987 0.126869C10.7821 0.164165 11.0554 0.25695 11.3029 0.399921L23.7352 7.57742C24.2351 7.86584 24.6 8.34105 24.7495 8.8985C24.8991 9.45596 24.8211 10.05 24.5327 10.5499C24.2442 11.0499 23.769 11.4147 23.2116 11.5643C22.6541 11.7139 22.0601 11.6358 21.5602 11.3474L13.7012 6.80892C15.5741 13.0966 18.5311 19.0087 22.4389 24.2785L33.1631 13.5543C33.5709 13.147 34.1237 12.9182 34.7001 12.9182C35.2764 12.9182 35.8292 13.147 36.2371 13.5543L51.4621 28.7793C51.8694 29.1871 52.0981 29.7399 52.0981 30.3163C52.0981 30.8927 51.8694 31.4484 51.4621 31.8562Z" fill="black"/>
</svg>
