<svg width="24" height="20" viewBox="0 0 24 20" fill="none" xmlns="http://www.w3.org/2000/svg">
<path d="M22.4025 16.5697C23.2538 16.5697 23.9443 17.2594 23.9445 18.1107C23.9445 18.9622 23.2539 19.6527 22.4025 19.6527H12.1251C11.2737 19.6527 10.5831 18.9622 10.5831 18.1107C10.5832 17.2594 11.2738 16.5697 12.1251 16.5697H22.4025ZM22.4025 8.34705C23.2539 8.34705 23.9445 9.0376 23.9445 9.88904C23.9443 10.7403 23.2538 11.4301 22.4025 11.4301H1.8468C0.995556 11.4299 0.305939 10.7403 0.305786 9.88904C0.305786 9.03767 0.995461 8.34716 1.8468 8.34705H22.4025ZM12.1251 0.12439C12.9765 0.124507 13.6661 0.815015 13.6661 1.66638C13.6661 2.51775 12.9765 3.20826 12.1251 3.20837H1.8468C0.995513 3.2082 0.305786 2.51771 0.305786 1.66638C0.305786 0.815051 0.995512 0.124566 1.8468 0.12439H12.1251Z" fill="white"/>
</svg>
