<svg width="15" height="16" viewBox="0 0 15 16" fill="none" xmlns="http://www.w3.org/2000/svg">
<path fill-rule="evenodd" clip-rule="evenodd" d="M3.99899 0.499023H13.999C14.1758 0.499023 14.3454 0.569261 14.4704 0.694285C14.5954 0.81931 14.6657 0.988879 14.6657 1.16569V11.1657C14.6657 11.3425 14.5954 11.5121 14.4704 11.6371C14.3454 11.7621 14.1758 11.8324 13.999 11.8324C13.8222 11.8324 13.6526 11.7621 13.5276 11.6371C13.4026 11.5121 13.3323 11.3425 13.3323 11.1657V2.77458L1.13677 14.9701C1.0104 15.0879 0.843243 15.152 0.670531 15.149C0.497819 15.1459 0.333032 15.0759 0.210887 14.9538C0.0887424 14.8317 0.0187762 14.6669 0.0157289 14.4942C0.0126816 14.3214 0.076791 14.1543 0.194551 14.0279L12.3901 1.83236H3.99899C3.82218 1.83236 3.65261 1.76212 3.52759 1.63709C3.40257 1.51207 3.33233 1.3425 3.33233 1.16569C3.33233 0.988879 3.40257 0.81931 3.52759 0.694285C3.65261 0.569261 3.82218 0.499023 3.99899 0.499023Z" fill="#A6A6A6"/>
</svg>
